<svg xmlns="http://www.w3.org/2000/svg" width="306.919" height="260.126" viewBox="0 0 306.919 260.126"><g transform="translate(-826.687 -193.161)"><path d="M551.265,533.24H358.112a23.882,23.882,0,0,1-23.883-23.883V420.865A9.461,9.461,0,0,1,337.182,414l102.352-97.021a22.029,22.029,0,0,1,30.309,0l97.587,92.5a24.731,24.731,0,0,1,7.717,17.949v81.928a23.883,23.883,0,0,1-23.883,23.883Z" transform="translate(492.708 -80.612)" fill="#fe3e57"/><path d="M240.954,387.992h238.91v96.5a14.421,14.421,0,0,1-14.421,14.421H255.375a14.421,14.421,0,0,1-14.421-14.421v-96.5Z" transform="translate(585.984 -46.287)" opacity="0.2"/><path d="M333.73,521.351" transform="translate(492.957 -185.418)" fill="none" stroke="#3f3d56" stroke-miterlimit="10" stroke-width="1"/><rect width="177.677" height="177.677" rx="26.181" transform="translate(858.307 265.666)" fill="#fff"/><path d="M481.131,395.942v97.647H303.454V395.942l88.839,42.939Z" transform="translate(554.853 -50.246)" opacity="0.06"/><path d="M454.189,582.3,340.358,527.277a4.619,4.619,0,0,0-6.628,4.158V626.1a14.421,14.421,0,0,0,14.421,14.421H560.226A14.421,14.421,0,0,0,574.648,626.1V533.057a5.636,5.636,0,0,0-8.088-5.074Z" transform="translate(492.957 -188.14)" fill="#fe3e57"/><rect width="49.689" height="7.027" transform="translate(873.616 281.978)" fill="#b4b1b1"/><rect width="147.562" height="4.015" transform="translate(869.6 307.575)" fill="#b4b1b1"/><rect width="147.562" height="4.015" transform="translate(869.6 321.127)" fill="#b4b1b1"/><rect width="147.562" height="4.015" transform="translate(869.6 334.679)" fill="#b4b1b1"/><path d="M809.572,299.286c-.3,2.688-2.352,4.852-3.111,7.448-1.143,3.907.834,8.1,3.538,11.141a24.673,24.673,0,0,0,17.182,8.158,7.328,7.328,0,0,0,2.841-.31,6.081,6.081,0,0,0,2.161-1.477,13.816,13.816,0,0,0,3.565-7.731,41.154,41.154,0,0,0,.1-8.64,4.877,4.877,0,0,0-.319-1.743,4.464,4.464,0,0,0-1.122-1.379,26.137,26.137,0,0,0-4.813-3.5,5.526,5.526,0,0,1-2.017-1.543,4.989,4.989,0,0,1-.623-1.848l-.532-2.71a5.325,5.325,0,0,0-.781-2.2c-.939-1.267-2.736-1.44-4.312-1.5l-5.774-.226c-1.8-.07-4.163-.586-5.916-.233-1.637.329-1.094,1.838-.8,3.212A23.221,23.221,0,0,1,809.572,299.286Z" transform="translate(257.66 -70.622)" fill="#b87b50"/><path d="M856.364,535.438l-2.454,26.907c-.641,7.057-1.293,14.143-2.549,21.11-.434,2.4-.942,4.789-1.545,7.156-1.678,6.574-4.111,13-4.9,19.738-.025.194-.045.393-.066.591a17.158,17.158,0,0,1-.839,4.38c-.392,1.029-1,1.967-1.421,2.983a19.034,19.034,0,0,0-1.062,6.483,27.949,27.949,0,0,0-9.623-3.289c-1.632-.244-3.45-.417-4.562-1.636-1.231-1.347-1.095-3.409-.888-5.219q.973-8.429,1.942-16.85a43.922,43.922,0,0,1,1.227-7.156c.223-.781.492-1.549.764-2.318.376-1.058.756-2.116,1.041-3.2a38.567,38.567,0,0,0,.859-5.334c.665-5.652,1.467-11.292,2.169-16.941l.037-.3a173.241,173.241,0,0,0,1.624-25.787c-.033-1.277-.087-2.554-.169-3.834-.116-1.855-.285-2.839,1.252-4a28.905,28.905,0,0,1,5.875-3.016c1.045-.454,12.557-4.541,12.825-3.644a22.43,22.43,0,0,1,.843,5.875A65.371,65.371,0,0,1,856.364,535.438Z" transform="translate(247.603 -185.807)" fill="#4d7381"/><path d="M855.4,623.556c-.434,2.4-.942,4.789-1.545,7.156-1.677,6.574-4.111,13-4.9,19.738-.025.194-.045.392-.066.591-5.132-7.33-9.454-15.214-14.461-22.622.376-1.058.756-2.115,1.041-3.2a38.563,38.563,0,0,0,.859-5.334c.665-5.652,1.467-11.292,2.169-16.941l.037-.3a17.546,17.546,0,0,0,1.252,3.475c3.363,6.834,11.354,10.288,15.263,16.829Q855.23,623.252,855.4,623.556Z" transform="translate(243.566 -225.909)" opacity="0.1"/><path d="M793.223,491.573a127.17,127.17,0,0,0,1.923,16.327l1.807,11.169c.989,6.113,2.018,12.351,4.911,17.826,2.164,4.1,5.282,7.591,8.1,11.265,6.934,9.034,12.143,19.267,18.718,28.565,1.911,2.7,4.643,5.625,7.9,5.061,2.141-.37,3.7-2.153,5.378-3.527,1.984-1.62,4.375-2.806,5.936-4.836s1.867-5.406-.248-6.851a11.16,11.16,0,0,0-2.42-.99c-3.278-1.247-5.4-4.448-6.75-7.685s-2.168-6.718-3.967-9.729c-3.908-6.541-11.9-9.995-15.265-16.831-1.884-3.829-2.064-8.242-2.208-12.507l-.367-10.872a7.939,7.939,0,0,1,.412-3.513c1.287-2.894,5.172-3.164,8.318-3.531A28.455,28.455,0,0,0,835.6,497.7a10.634,10.634,0,0,0,4.552-4.043,13.03,13.03,0,0,0,1.11-5.478l1.089-19.7a12.338,12.338,0,0,0-.418-5.037c-1.5-3.99-6.539-5.294-10.8-5.1-7.925.354-15.241,3.763-22.714,6.066a57.755,57.755,0,0,1-5.63,1.469c-1.677.337-3.707.2-5.306.736-2.844.959-2.772,7.18-3.176,9.76A82.158,82.158,0,0,0,793.223,491.573Z" transform="translate(264.099 -154.02)" fill="#4d7381"/><path d="M875.933,693.321a5.038,5.038,0,0,1,1.109,2.713,92.644,92.644,0,0,1,1.569,16.409,2.679,2.679,0,0,0,.3,1.487,1.868,1.868,0,0,0,.772.62c2.02.963,4.364-.379,6.047-1.853,3.12-2.733,5.76-6.4,5.937-10.546a24.489,24.489,0,0,1,.112-3.2,13.349,13.349,0,0,1,1.988-4.285,36.165,36.165,0,0,0,3.285-7.364c.307-.965.511-2.181-.245-2.854a2.751,2.751,0,0,0-.9-.467l-9.124-3.388c-.791-.294-2.758,4.76-3.07,5.313a4.175,4.175,0,0,1-3.056,2.431c-1.564.318-3.426-.138-4.886.642C873.3,690.3,874.535,691.911,875.933,693.321Z" transform="translate(223.679 -264.729)" fill="#3d3130"/><path d="M839.14,710.617a2.8,2.8,0,0,0-.694-.881,3.141,3.141,0,0,0-1.4-.476c-1.737-.295-3.8-.489-4.995.8-1.124,1.21-.931,3.182-1.87,4.541-.3.43-.7.784-.958,1.239a4.672,4.672,0,0,0-.42,2.223c-.049,2.106-.1,4.215.048,6.316a8.836,8.836,0,0,0,1.52,4.985c1.767,2.214,4.955,2.532,7.784,2.676l2.291.116a4.473,4.473,0,0,0,1.878-.172,3.091,3.091,0,0,0,1.62-1.782c1.193-2.964-.7-6.158-1.86-9.135C840.745,717.649,840.985,713.851,839.14,710.617Z" transform="translate(246.393 -278.905)" fill="#3d3130"/><path d="M803.848,261.318a1.894,1.894,0,0,1,.129-.883c.336-.593,1.212-.432,1.873-.265,2.659.67,5.46.064,8.2.22s5.82,1.525,6.371,4.211c1.987-1.408,3.45-.21,4.8-2.234a18.169,18.169,0,0,0,1.568-6.761c-.149-1.966-1.8-3.437-3.327-4.684l-4.554-3.718a6.862,6.862,0,0,0-2.039-1.3,10.162,10.162,0,0,0-3.31-.187c-3.315,0-6.849-1.507-9.8.009a10.575,10.575,0,0,0-3.052,2.776l-4.065,4.811a2.57,2.57,0,0,0-.65,1.1,18.236,18.236,0,0,0,0,3.472c.192,1.075.294,3.967.65,5a17.934,17.934,0,0,0,4.065,5.952c.474.366.823-4.868,1.387-4.883" transform="translate(262.721 -47.797)" fill="#1e2336"/><ellipse cx="11.515" cy="13.515" rx="11.515" ry="13.515" transform="translate(1062.45 200.672)" fill="#d29a74"/><path d="M800.4,322.592a6.3,6.3,0,0,0-6.138-4.224,1.872,1.872,0,0,1-1.132-.143,1.56,1.56,0,0,1-.465-.582,22.738,22.738,0,0,1-1.9-4.486c-.208-.689-.492-1.5-1.188-1.68a1.606,1.606,0,0,0-1.515.659,13.35,13.35,0,0,1-1.083,1.361c-1.637,1.464-4.539.13-6.276,1.472-.284.219-.518.5-.816.7a3.813,3.813,0,0,1-.956.41,91.657,91.657,0,0,0-9.851,3.858c1.156,6.96,2.34,14.041,5.049,20.556,1.289,3.1,2.75,6.136,3.782,9.331,2.287,7.079,2.389,14.653,2.414,22.092.018,5.091-.008,10.292-1.655,15.109a14.26,14.26,0,0,0-.93,3.319,3.439,3.439,0,0,0,1.165,3.094,3.984,3.984,0,0,0,1.8.631c2.854.419,5.732-.341,8.542-.992,7.533-1.745,15.215-2.743,22.883-3.738l12.849-1.668a7.459,7.459,0,0,0,2.658-.687c2.351-1.287,2.574-4.824,1.114-7.072a38.418,38.418,0,0,1-2.276-3.1c-.588-1.143-.638-2.74.374-3.532,2.06-1.61,1.445-4.6,1.543-7.209q.412-10.956-.111-21.921a43.652,43.652,0,0,1-.073-4.546,40.263,40.263,0,0,1,1.417-7.586l3.9-15.373a8.01,8.01,0,0,0-4.823-3.1c-1.85-.464-3.777-.6-5.6-1.165-3.732-1.157-7.055-4.092-10.953-3.818a1.988,1.988,0,0,0-.849.207c-.879.5-.74,1.765-.8,2.774-.124,2.232-1.766,4.1-3.579,5.405s-3.883,2.262-5.548,3.753A2.476,2.476,0,0,0,800.4,322.592Z" transform="translate(276.113 -79.419)" fill="#dfca44"/><path d="M721.864,360.807a15.367,15.367,0,0,1-2.738,1.409,9,9,0,0,0-2.622,1.273,4.11,4.11,0,0,0-.912,1.127,5.011,5.011,0,0,0,4.62,7.465,10.058,10.058,0,0,0,3.417-1.019l9.18-3.978c1.554-.673,3.232-1.462,3.966-2.988a.7.7,0,0,0,.089-.474.785.785,0,0,0-.377-.4,20.512,20.512,0,0,1-5.345-5.04c-.377-.511-.838-1.719-1.37-2.025C727.83,355.04,723.42,359.8,721.864,360.807Z" transform="translate(303.078 -103.054)" fill="#eba575"/><path d="M902.512,359.084l3.384,3.866c.727.83,1.454,1.661,2.116,2.543a29.681,29.681,0,0,1,3.876,7.3,12.751,12.751,0,0,1,1.089,6.037,14.764,14.764,0,0,1-.847,3.07,38.208,38.208,0,0,1-2.3,5.539,31.54,31.54,0,0,1-2.588,3.878,90.565,90.565,0,0,1-8.579,9.814c-1.157,1.145-1.642,3-2.146,4.546-.929,2.856-3.14,5.08-5.277,7.189a14.673,14.673,0,0,1-2.266,1.95,7.381,7.381,0,0,1-4.124,1.174,4.526,4.526,0,0,1-1.857-.384,4.8,4.8,0,0,1-2.359-4,8.5,8.5,0,0,1,.712-4.277c1.942-4.3,6.929-6.167,10.455-9.306a33.957,33.957,0,0,0,5.207-6.44,22.257,22.257,0,0,0,2.633-4.616c.787-2.1.481-4.587,1.169-6.723.291-.9.808-1.718,1.12-2.613a3.048,3.048,0,0,0-.156-2.733,3.972,3.972,0,0,0-1.532-1.122c-2.252-1.143-4.774-2.614-5.205-5.1a5.467,5.467,0,0,1,1.008-3.9,16.236,16.236,0,0,1,2.84-2.976" transform="translate(220.569 -104.595)" fill="#eba575"/><path d="M708.911,372.938a6.288,6.288,0,0,0-2.551-3.039,4.7,4.7,0,0,0-3.708-.016,13.94,13.94,0,0,0-3.254,1.968L696.481,374a7.183,7.183,0,0,0-1.732,1.6,6.75,6.75,0,0,0-.9,2.475,17.692,17.692,0,0,0-.459,6.122c.463,3.29,2.446,6.162,4.629,8.666,1.364,1.565,3.048,3.144,5.123,3.211a2.35,2.35,0,0,0,2.264-1.139,2.842,2.842,0,0,0,.2-1.015c.224-3.669-1.089-7.253-2.619-10.6a6.794,6.794,0,0,1-.845-2.847.781.781,0,0,1,.125-.477.805.805,0,0,1,.5-.243c2.095-.414,5.7,1.213,7.173-1.113C710.893,377.134,709.588,374.306,708.911,372.938Z" transform="translate(313.859 -109.788)" fill="#eba575"/><path d="M809.9,252.861c2.423-1.2,4.647-3.023,7.131-2.939,3.21.1,6.246,2.576,7.082,1.327a6.234,6.234,0,0,0,1.318-3.8c-.149-1.966-1.8-3.437-3.327-4.684l-4.554-3.718a6.862,6.862,0,0,0-2.039-1.3,10.163,10.163,0,0,0-3.31-.187c-3.315,0-6.849-1.507-9.8.009a10.575,10.575,0,0,0-3.052,2.776l-4.065,4.811a2.57,2.57,0,0,0-.65,1.1,4.894,4.894,0,0,0,.291,1.756c.192,1.075-.271,2.222.085,3.254a8.373,8.373,0,0,0,2.5,3.179A19.463,19.463,0,0,0,809.9,252.861Z" transform="translate(263.399 -43.734)" fill="#1e2336"/><path d="M748.322,336.069a5.29,5.29,0,0,0-1.362,1.268c-.477.721-.574,1.632-.984,2.394-.877,1.63-2.929,2.21-4.209,3.547a1.325,1.325,0,0,0-.4.694,1.546,1.546,0,0,0,.344,1l6.172,9.7c2.055.181,4.026-1.107,6.082-.936a6.11,6.11,0,0,0,2.289.1,6.565,6.565,0,0,0,1.469-.9c1.227-.775,2.86-.866,3.889-1.889a5.326,5.326,0,0,0,1.1-3.911,15.723,15.723,0,0,0-.367-3.6c-.909-3.724-3.757-6.582-5.543-9.881-.869-1.606-1.342-2.546-3.182-1.444S750.063,334.8,748.322,336.069Z" transform="translate(289.921 -90.976)" fill="#dfca44"/><path d="M894.047,327.338a14.438,14.438,0,0,1,3.1,2.72c.94,1.212,1.473,2.7,2.376,3.936a43.915,43.915,0,0,0,3.06,3.24,25.022,25.022,0,0,1,3.528,5.747A85.858,85.858,0,0,1,898.132,352a2.575,2.575,0,0,1-1.212.8,1.956,1.956,0,0,1-1.714-.7c-.444-.466-.76-1.041-1.184-1.525a6.1,6.1,0,0,0-3.773-1.825,25.913,25.913,0,0,0-4.275-.059,1.691,1.691,0,0,1-.913-.154,1.534,1.534,0,0,1-.5-.571c-1.671-2.843-1.133-6.414-.544-9.658l1.353-7.446a16.715,16.715,0,0,1,1.126-4.138c.512-1.1,1.658-2.952,3.067-2.624S892.852,326.479,894.047,327.338Z" transform="translate(219.152 -87.151)" fill="#dfca44"/><ellipse cx="20.578" cy="20.616" rx="20.578" ry="20.616" transform="translate(845.007 247.847)" fill="#fff"/><path d="M386.824,338.851a24.594,24.594,0,1,0,24.594,24.594A24.594,24.594,0,0,0,386.824,338.851Zm-5.049,37.706-12.6-12.6,3.535-3.535,9.081,9.08,19.167-19.167,3.535,3.535-22.714,22.69Z" transform="translate(478.762 -94.517)" fill="#1fc006"/></g></svg>