<svg width="791" height="543" viewBox="0 0 791 543" fill="none" xmlns="http://www.w3.org/2000/svg"><style>#moon{animation: rotate 20s infinite 0s linear; transform-origin:center; transform-box:fill-box;}#circle_top_left,#circle_front_bottom,#circle_back,#circle_back_top,#circle_front,#circle_bottom_corner,#circle_small_front,#top_small_star,#circle_top_up_small,#circle_front_small{animation: blink 1.8s infinite 0s ease; transform-origin:center; transform-box:fill-box;}#circle_front_bottom,#top_small_star{animation-delay: .7s;}#circle_back,#circle_front_small{animation-delay: .3s;}#circle_back_top,#star_top{animation-delay:1.3s;}#circle_front{animation-delay:1.6s;}#star_behind,#star_top,#star_front_small,#star_behind_small{animation: starBlink 1.8s infinite 0s ease; transform-origin:center; transform-box:fill-box;}#front_star{animation: starBlink 3s infinite 0s ease; transform-origin:center; transform-box:fill-box;}#star_behind{animation-delay:1s;}@keyframes rotate{0%{transform: rotate(0deg);}100%{transform: rotate(360deg);}}@keyframes blink{0%{opacity:1; transform:scale(1.2);}50%{opacity:0; transform:scale(1);}100%{opacity:1; transform:scale(1.2);}}@keyframes starBlink{0%{transform:scale(1.5);}50%{transform:scale(1);}100%{transform:scale(1.5);}}</style><g id="hero img"><path id="Path 19" d="M8.08801 411.765L7.20599 417.865C7.16379 418.146 7.02938 418.404 6.82397 418.6C6.61895 418.79 6.364 418.918 6.08899 418.968L0.000976562 419.85L6.08899 420.732C6.37362 420.766 6.63853 420.895 6.84125 421.098C7.04397 421.301 7.17274 421.565 7.20697 421.85L8.08899 427.938L8.97101 421.838C9.01139 421.558 9.14261 421.298 9.34454 421.1C9.54648 420.901 9.80797 420.774 10.089 420.738L16.177 419.856L10.077 418.974C9.79663 418.934 9.53719 418.803 9.3385 418.601C9.13982 418.399 9.01282 418.137 8.97699 417.856L8.08801 411.765Z" fill="#FAFAFA"/><path id="star_front_small" d="M26.2347 359.067L32.3197 360.053C32.5996 360.1 32.8559 360.239 33.0482 360.447C33.2348 360.656 33.3581 360.913 33.4037 361.189L34.1852 367.293L35.1707 361.22C35.2097 360.936 35.343 360.673 35.5492 360.474C35.7554 360.274 36.0225 360.15 36.3077 360.121L42.4107 359.342L36.3257 358.357C36.0459 358.311 35.7888 358.176 35.5935 357.97C35.3983 357.765 35.2757 357.501 35.2447 357.22L34.4662 351.117L33.4805 357.202C33.4255 357.476 33.2935 357.729 33.1 357.931C32.8875 358.12 32.6248 358.243 32.3437 358.286L26.2347 359.067Z" fill="#FAFAFA"/><g id="moon"><g id="Group 3"><path id="Ellipse 1" d="M687.442 202C721.407 202 748.942 174.689 748.942 141C748.942 107.311 721.407 80 687.442 80C653.476 80 625.942 107.311 625.942 141C625.942 174.689 653.476 202 687.442 202Z" fill="#CDCDCD"/><path id="Path 1" d="M626.471 140.441C626.479 151.115 629.285 161.6 634.61 170.851C639.934 180.101 647.592 187.794 656.818 193.162C666.044 198.529 676.516 201.384 687.19 201.441C697.863 201.498 708.365 198.755 717.648 193.486C691.187 166.442 661.295 142.982 628.736 123.707C627.205 129.152 626.442 134.785 626.471 140.441Z" fill="#C8C8C8"/><g id="Group 2"><path id="Path 2" d="M633.914 137.662L639.708 136L640.399 135.794C645.024 134.957 649.769 135.057 654.355 136.088C662.884 138.617 657.955 145 668.149 142.088C669.458 141.72 669.517 135.676 668.855 133.367C668.576 132.382 664.076 131.529 662.134 131.014C661.408 130.847 660.756 130.451 660.274 129.884C659.792 129.317 659.505 128.61 659.458 127.867L661.384 123.455C661.38 122.772 661.193 122.103 660.841 121.518C660.489 120.933 659.985 120.454 659.384 120.131L651.472 117.057C649.747 116.395 648.279 115.199 647.281 113.645L638.09 104.616C630.516 115.023 626.448 127.57 626.474 140.442" fill="#B6B6B6"/><path id="Path 3" d="M671.428 177.485C670.943 179.147 669.207 185.559 667.752 192.367C667.502 193.661 667.09 195.441 666.678 197.205C662.589 195.603 658.688 193.557 655.046 191.105C651.631 188.798 648.454 186.157 645.561 183.223L671.546 177.061C671.498 177.2 671.458 177.343 671.428 177.487V177.485Z" fill="#AFAFAF"/><path id="Path 4" d="M687.222 101.471L691.913 117.912C693.794 124.485 699.384 122.88 703.678 121.68C714.207 118.739 715.237 124.78 716.369 128.724C717.501 132.668 718.237 135.298 721.193 134.445C724.149 133.592 721.293 127.313 726.222 125.901L729.163 125.077L745.251 120.489C741.654 110.122 735.331 100.915 726.947 93.8348C718.563 86.755 708.427 82.0637 697.604 80.2539C699.044 82.1796 700.234 84.2796 701.148 86.5039C702.28 90.4449 698.28 92.6509 692.692 94.2539C686.061 96.1179 686.943 100.471 687.222 101.471Z" fill="#B9B9B9"/><path id="Path 5" d="M697.546 162.5L700.061 171.324C700.061 171.324 704.473 176.883 705.517 178.015C710.3 182.604 714.665 187.609 718.561 192.971C721.135 191.45 723.593 189.739 725.914 187.853C726.943 187.015 727.929 186.147 728.855 185.253L725.179 172.353V147.5L721.444 145.426L720.944 145.147L718.326 145.882L713.061 147.353C710.752 148.015 708.461 151.162 707.046 153.677C704.178 160.588 701.472 161.353 697.546 162.5Z" fill="#B9B9B9"/><path id="Path 6" d="M626.472 140.437C626.46 150.47 628.927 160.351 633.653 169.202C638.378 178.052 645.216 185.599 653.56 191.172C657.221 184.865 662.983 180.047 669.838 177.559H669.956C671.294 177 682.412 171.853 679.235 160.706C678.191 157.106 675.47 147.559 659.029 152.25C649.176 155.074 641.661 153.721 640.72 150.368C637.911 140.515 640.249 136.28 640.249 136.28C640.09 136.221 639.937 136.147 639.793 136.059H639.705C636.105 134.059 633.587 126.765 628.661 124.177C627.199 129.473 626.463 134.943 626.472 140.437V140.437Z" fill="#9B9B9B"/><path id="Path 7" d="M695.722 168.412C698.766 179.236 705.531 178.012 705.531 178.012C710.431 176.644 722.105 179.483 725.931 187.85C726.96 187.012 727.946 186.144 728.872 185.25C729.798 184.356 730.901 183.324 731.813 182.309C730.975 175.191 733.284 163.191 730.342 153.162C728.442 146.588 736.857 139.927 738.93 137.191C741.709 133.529 745.121 129.132 746.415 125.015C746.015 123.544 745.562 121.971 745.033 120.486C741.926 111.497 736.754 103.363 729.933 96.7358C728.039 100.498 727.489 104.794 728.374 108.912C729.845 113.853 724.33 119.677 726.021 125.588C726.975 125.292 727.964 125.119 728.962 125.073C731.903 124.973 733.374 126.455 733.83 128.014L734.756 131.293C735.241 132.955 734.212 134.234 732.227 134.867C729.595 135.617 729.462 136.338 729.933 138.014C730.404 139.69 729.507 142.764 727.533 143.323L721.283 145.102L721.383 145.47C724.854 158.029 720.001 163.264 713.483 165.102C700.983 168.676 697.468 162.573 697.468 162.573C695.59 163.147 695.355 167.103 695.722 168.412Z" fill="#AAAAAA"/></g></g><path id="Path 8" d="M687.501 52.9409C704.807 52.9409 721.724 58.0727 736.113 67.6873C750.503 77.302 761.718 90.9676 768.34 106.956C774.963 122.945 776.696 140.538 773.32 157.511C769.943 174.485 761.61 190.076 749.373 202.313C737.136 214.55 721.545 222.883 704.571 226.26C687.598 229.636 670.005 227.903 654.016 221.28C638.028 214.658 624.362 203.443 614.747 189.053C605.133 174.664 600.001 157.747 600.001 140.441C600.001 117.234 609.22 94.9785 625.629 78.5691C642.039 62.1596 664.295 52.9409 687.501 52.9409V52.9409ZM687.501 201.471C699.572 201.471 711.371 197.892 721.408 191.186C731.444 184.48 739.267 174.949 743.886 163.797C748.505 152.645 749.714 140.374 747.359 128.535C745.005 116.696 739.192 105.822 730.657 97.2865C722.122 88.7512 711.247 82.9386 699.409 80.5837C687.57 78.2287 675.299 79.4373 664.147 84.0565C652.995 88.6756 643.464 96.498 636.757 106.534C630.051 116.571 626.472 128.37 626.472 140.441V140.441C626.472 156.627 632.902 172.15 644.347 183.596C655.793 195.041 671.316 201.471 687.502 201.471H687.501Z" fill="url(#paint0_radial)"/></g><path id="star_top" d="M443.383 0L441.912 10.529C441.84 11.0138 441.613 11.4623 441.265 11.808C440.916 12.1506 440.469 12.3766 439.986 12.455L429.471 13.926L440 15.397C440.485 15.4696 440.933 15.6964 441.279 16.044C441.622 16.3932 441.848 16.84 441.926 17.323L443.397 27.838L444.868 17.309C444.986 16.8663 445.238 16.471 445.589 16.177C445.938 15.8343 446.385 15.6083 446.868 15.53L457.383 14.059L446.854 12.588C446.35 12.4684 445.903 12.1771 445.589 11.764C445.247 11.4147 445.021 10.9679 444.942 10.485L443.383 0Z" fill="white"/><path id="star1" d="M62.5002 150L60.4852 163.853C60.396 164.488 60.1017 165.077 59.6472 165.529C59.1917 165.983 58.6049 166.281 57.9702 166.382L44.1172 168.382L57.9702 170.397C58.6092 170.481 59.2029 170.773 59.66 171.227C60.1171 171.682 60.4123 172.273 60.5002 172.912L62.5002 186.765L64.5151 172.912C64.6043 172.277 64.8986 171.688 65.3531 171.236C65.8087 170.783 66.3954 170.484 67.0302 170.383L80.8832 168.383L67.0302 166.368C66.3913 166.284 65.7978 165.992 65.3409 165.538C64.884 165.083 64.589 164.491 64.5012 163.853L62.5002 150Z" fill="#FAFAFA"/><path id="star_behind_small" d="M621.324 422.06L620.118 430.369C620.059 430.754 619.878 431.109 619.603 431.384C619.339 431.663 618.985 431.84 618.603 431.884L610.295 433.089L618.604 434.295C618.989 434.354 619.344 434.534 619.619 434.81C619.898 435.074 620.075 435.428 620.119 435.81L621.325 444.119L622.531 435.81C622.59 435.425 622.77 435.07 623.046 434.795C623.31 434.516 623.664 434.339 624.046 434.295L632.355 433.089L624.046 431.883C623.661 431.824 623.306 431.644 623.031 431.368C622.752 431.104 622.575 430.75 622.531 430.368L621.324 422.06Z" fill="#FAFAFA"/><path id="circle_front_small" d="M15.3239 268.06L14.1179 276.369C14.0589 276.754 13.8785 277.109 13.6029 277.384C13.3389 277.663 12.9847 277.84 12.6029 277.884L4.29492 279.089L12.6039 280.295C12.9886 280.354 13.3442 280.534 13.6189 280.81C13.8981 281.074 14.0752 281.428 14.1189 281.81L15.3249 290.119L16.5309 281.81C16.5899 281.425 16.7703 281.07 17.0459 280.795C17.31 280.516 17.6641 280.339 18.0459 280.295L26.3549 279.089L18.0459 277.883C17.6613 277.824 17.3056 277.644 17.0309 277.368C16.7517 277.104 16.5746 276.75 16.5309 276.368L15.3239 268.06Z" fill="#FAFAFA"/><path id="circle_top_up_small" d="M570.441 61C572.926 61 574.941 58.9853 574.941 56.5C574.941 54.0147 572.926 52 570.441 52C567.956 52 565.941 54.0147 565.941 56.5C565.941 58.9853 567.956 61 570.441 61Z" fill="white"/><path id="Path 13" d="M397.794 227.942L396.912 234.042C396.872 234.322 396.74 234.582 396.539 234.78C396.337 234.979 396.075 235.106 395.794 235.142L389.706 236.024L395.806 236.906C396.086 236.946 396.346 237.077 396.545 237.279C396.743 237.481 396.87 237.743 396.906 238.024L397.788 244.112L398.67 238.012C398.71 237.732 398.842 237.472 399.044 237.273C399.246 237.075 399.507 236.948 399.788 236.912L405.876 236.03L399.776 235.148C399.496 235.108 399.236 234.976 399.038 234.774C398.839 234.572 398.712 234.311 398.676 234.03L397.794 227.942Z" fill="#FAFAFA"/><path id="Path 14" d="M311.029 155.883L310.147 161.983C310.107 162.263 309.975 162.523 309.773 162.721C309.571 162.92 309.31 163.047 309.029 163.083L302.941 163.965L309.041 164.847C309.321 164.888 309.58 165.019 309.779 165.221C309.977 165.423 310.104 165.684 310.141 165.965L311.023 172.053L311.905 165.953C311.945 165.672 312.077 165.413 312.278 165.214C312.48 165.016 312.742 164.889 313.023 164.853L319.111 163.971L313.011 163.089C312.731 163.048 312.471 162.917 312.272 162.715C312.074 162.513 311.947 162.252 311.911 161.971L311.029 155.883Z" fill="#FAFAFA"/><path id="star_behind" d="M650.736 282.353L649.045 293.985C648.985 294.542 648.736 295.061 648.339 295.456C647.942 295.852 647.424 296.105 646.868 296.177L635.295 297.794L646.927 299.485C647.484 299.545 648.003 299.794 648.398 300.191C648.794 300.588 649.047 301.106 649.119 301.662L650.737 313.236L652.428 301.604C652.488 301.047 652.737 300.528 653.134 300.133C653.531 299.737 654.049 299.484 654.605 299.412L666.179 297.794L654.545 296.103C653.988 296.043 653.469 295.794 653.074 295.397C652.678 295 652.424 294.482 652.353 293.926L650.736 282.353Z" fill="#FAFAFA"/><path id="Path 16" d="M752.207 397.059L751.325 403.159C751.284 403.439 751.153 403.698 750.951 403.897C750.749 404.095 750.488 404.222 750.207 404.259L744.119 405.141L750.219 406.023C750.5 406.063 750.759 406.195 750.958 406.397C751.156 406.599 751.283 406.86 751.319 407.141L752.201 413.229L753.083 407.129C753.124 406.849 753.255 406.589 753.457 406.391C753.659 406.192 753.92 406.065 754.201 406.029L760.289 405.147L754.189 404.265C753.909 404.225 753.649 404.093 753.451 403.892C753.252 403.69 753.125 403.428 753.089 403.147L752.207 397.059Z" fill="#FAFAFA"/><path id="Path 17" d="M178.676 232.353L177.794 238.453C177.753 238.733 177.621 238.992 177.419 239.191C177.218 239.389 176.957 239.516 176.676 239.553L170.588 240.435L176.676 241.317C176.961 241.351 177.226 241.48 177.428 241.683C177.631 241.885 177.76 242.15 177.794 242.435L178.676 248.523L179.558 242.423C179.598 242.143 179.729 241.883 179.931 241.685C180.133 241.486 180.395 241.359 180.676 241.323L186.764 240.441L180.676 239.559C180.391 239.525 180.126 239.396 179.923 239.193C179.721 238.991 179.592 238.726 179.558 238.441L178.676 232.353Z" fill="#FAFAFA"/><path id="Path 18" d="M666.913 397.059L666.031 403.147C665.997 403.432 665.868 403.697 665.666 403.9C665.463 404.102 665.198 404.231 664.913 404.265L658.825 405.147L664.913 406.029C665.198 406.063 665.463 406.192 665.666 406.395C665.868 406.597 665.997 406.862 666.031 407.147L666.913 413.235L667.795 407.135C667.846 406.86 667.973 406.605 668.163 406.4C668.368 406.201 668.63 406.072 668.913 406.032L675.001 405.15L668.913 404.268C668.628 404.234 668.364 404.105 668.161 403.903C667.958 403.7 667.829 403.435 667.795 403.15L666.913 397.059Z" fill="#FAFAFA"/><path id="Path 20" d="M444.853 117.647L443.647 125.956C443.588 126.341 443.408 126.696 443.132 126.971C442.868 127.25 442.514 127.427 442.132 127.471L433.824 128.676L442.133 129.882C442.518 129.941 442.874 130.121 443.148 130.397C443.427 130.661 443.604 131.015 443.648 131.397L444.854 139.706L446.06 131.397C446.119 131.012 446.3 130.657 446.575 130.382C446.839 130.103 447.193 129.926 447.575 129.882L455.884 128.676L447.575 127.47C447.191 127.411 446.835 127.231 446.56 126.955C446.281 126.691 446.104 126.337 446.06 125.955L444.853 117.647Z" fill="white"/><path id="Path 21" d="M105.147 426.471L103.941 434.78C103.882 435.165 103.702 435.52 103.426 435.795C103.162 436.074 102.808 436.251 102.426 436.295L94.1182 437.5L102.427 438.706C102.812 438.765 103.167 438.946 103.442 439.221C103.721 439.485 103.898 439.839 103.942 440.221L105.148 448.53L106.354 440.221C106.413 439.837 106.594 439.481 106.869 439.206C107.133 438.927 107.487 438.75 107.869 438.706L116.178 437.5L107.869 436.294C107.485 436.235 107.129 436.055 106.854 435.779C106.575 435.515 106.398 435.161 106.354 434.779L105.147 426.471Z" fill="white"/><path id="Path 68" d="M101.992 250.63L110.28 251.977C110.664 252.043 111.016 252.229 111.286 252.51C111.561 252.779 111.732 253.136 111.769 253.518L112.833 261.847L114.18 253.558C114.246 253.175 114.433 252.822 114.713 252.552C114.982 252.277 115.339 252.106 115.721 252.069L124.051 251.004L115.762 249.657C115.379 249.591 115.026 249.405 114.756 249.125C114.481 248.856 114.31 248.499 114.273 248.116L113.208 239.787L111.862 248.076C111.796 248.46 111.61 248.812 111.33 249.082C111.061 249.357 110.704 249.528 110.321 249.565L101.992 250.63Z" fill="white"/><path id="Path 22" d="M256.617 257.353L255.411 265.662C255.352 266.047 255.171 266.402 254.896 266.677C254.632 266.956 254.278 267.133 253.896 267.177L245.588 268.382L253.897 269.588C254.281 269.647 254.637 269.827 254.912 270.103C255.191 270.367 255.368 270.721 255.412 271.103L256.618 279.412L257.824 271.103C257.883 270.718 258.063 270.363 258.339 270.088C258.603 269.809 258.957 269.632 259.339 269.588L267.648 268.382L259.339 267.176C258.954 267.117 258.599 266.937 258.324 266.661C258.045 266.397 257.868 266.043 257.824 265.661L256.617 257.353Z" fill="white"/><path id="front_star" d="M216.912 166.177L214.706 181.133C214.608 181.824 214.288 182.464 213.794 182.957C213.301 183.442 212.668 183.76 211.985 183.869L197.059 186.03L212.015 188.236C212.703 188.335 213.34 188.654 213.833 189.144C214.325 189.634 214.647 190.27 214.75 190.957L216.912 205.883L219.118 190.927C219.217 190.236 219.537 189.596 220.03 189.103C220.524 188.618 221.156 188.299 221.839 188.191L236.765 186.029L221.809 183.823C221.121 183.723 220.484 183.405 219.992 182.915C219.499 182.425 219.177 181.789 219.074 181.102L216.912 166.177Z" fill="white"/><path id="Ellipse 3" d="M222.441 16C224.926 16 226.941 14.2091 226.941 12C226.941 9.79086 224.926 8 222.441 8C219.956 8 217.941 9.79086 217.941 12C217.941 14.2091 219.956 16 222.441 16Z" fill="#FAFAFA"/><path id="top_small_star" d="M286.941 44C288.598 44 289.941 42.6569 289.941 41C289.941 39.3431 288.598 38 286.941 38C285.284 38 283.941 39.3431 283.941 41C283.941 42.6569 285.284 44 286.941 44Z" fill="white"/><path id="circle_bottom_corner" d="M54.4409 459C55.8216 459 56.9409 457.657 56.9409 456C56.9409 454.343 55.8216 453 54.4409 453C53.0602 453 51.9409 454.343 51.9409 456C51.9409 457.657 53.0602 459 54.4409 459Z" fill="white"/><path id="circle_small_front" d="M104.096 326.569C104.743 325.35 104.082 323.732 102.619 322.955C101.156 322.178 99.4451 322.536 98.7975 323.755C98.1499 324.975 98.811 326.593 100.274 327.37C101.737 328.147 103.448 327.789 104.096 326.569Z" fill="white"/><path id="circle_top_left" d="M136.941 56C140.255 56 142.941 53.3137 142.941 50C142.941 46.6863 140.255 44 136.941 44C133.627 44 130.941 46.6863 130.941 50C130.941 53.3137 133.627 56 136.941 56Z" fill="#FAFAFA"/><path id="circle_front_bottom" d="M186.941 405C190.255 405 192.941 402.314 192.941 399C192.941 395.686 190.255 393 186.941 393C183.627 393 180.941 395.686 180.941 399C180.941 402.314 183.627 405 186.941 405Z" fill="#FAFAFA"/><path id="circle_back" d="M782.441 333C784.926 333 786.941 331.209 786.941 329C786.941 326.791 784.926 325 782.441 325C779.956 325 777.941 326.791 777.941 329C777.941 331.209 779.956 333 782.441 333Z" fill="#EEEEEE"/><path id="circle_front" d="M441.177 280.986C443.614 280.986 445.589 279.011 445.589 276.574C445.589 274.137 443.614 272.162 441.177 272.162C438.74 272.162 436.765 274.137 436.765 276.574C436.765 279.011 438.74 280.986 441.177 280.986Z" fill="#EEEEEE"/><path id="circle_back_top" d="M788.441 222C789.822 222 790.941 220.881 790.941 219.5C790.941 218.119 789.822 217 788.441 217C787.06 217 785.941 218.119 785.941 219.5C785.941 220.881 787.06 222 788.441 222Z" fill="#FAFAFA"/><g id="Group 9"><g id="Group 9_2"><path id="Path 27" d="M346.691 350.003H367.647C368.427 350.003 369.175 349.693 369.727 349.141C370.278 348.59 370.588 347.842 370.588 347.062C370.588 346.282 370.278 345.534 369.727 344.982C369.175 344.431 368.427 344.121 367.647 344.121H346.691C343.59 344.17 340.493 343.879 337.456 343.253H337.221C336.75 343.165 332.353 342.297 332.353 338.179C332.46 336.095 332.79 334.03 333.338 332.017C336.382 318.899 339.559 307.617 341.662 300.164L341.883 299.399C342.118 298.561 342.383 297.59 342.662 296.561C344.133 291.076 348.03 276.517 352.25 276.517C353.03 276.517 353.778 276.207 354.33 275.655C354.881 275.104 355.191 274.356 355.191 273.576C355.191 272.796 354.881 272.048 354.33 271.496C353.778 270.945 353.03 270.635 352.25 270.635C343.515 270.635 339.735 284.735 336.97 295.035C336.705 296.05 336.455 296.976 336.22 297.8L335.999 298.579C333.881 306.079 330.675 317.432 327.599 330.679C326.952 333.15 326.574 335.683 326.471 338.236C326.471 345.589 332.75 348.53 336.192 349.104C339.647 349.8 343.169 350.101 346.691 350.003V350.003Z" fill="#EBEBEB"/><path id="Path 28" d="M344.457 213.868L345.927 213.236L370.589 333.824H369.03C367.217 333.838 365.454 333.232 364.034 332.106C362.613 330.98 361.621 329.401 361.221 327.633L339.868 222.662C339.505 220.892 339.762 219.051 340.598 217.449C341.434 215.847 342.797 214.582 344.456 213.868H344.457Z" fill="#FAFAFA"/></g><path id="Path 29" opacity="0.2" d="M158.824 516.178C158.824 523.198 161.613 529.931 166.577 534.896C171.542 539.86 178.275 542.649 185.295 542.649H629.413C636.434 542.649 643.167 539.86 648.131 534.896C653.095 529.931 655.884 523.198 655.884 516.178H158.824Z" fill="url(#paint1_linear)"/><g id="Group 12"><path id="Path 30" d="M425.001 330.883L417.648 332.354H406.957C406.224 332.366 405.491 332.429 404.766 332.545C403.413 332.78 401.09 333.192 399.516 333.56C398.454 333.769 397.497 334.341 396.81 335.178C395.222 337.178 389.722 342.207 389.71 343.693C389.71 344.031 389.783 344.793 390.931 344.899C392.331 345.031 399.96 340.487 399.96 340.487L405.842 339.619L407.313 341.09C405.913 341.897 404.435 342.562 402.901 343.075C401.43 343.59 401.43 344.075 401.43 344.81C401.43 345.119 401.562 345.81 402.606 345.91C404.268 346.086 407.606 345.498 410.135 345.498C412.882 345.368 415.508 344.334 417.606 342.557H427.9L425.001 330.883Z" fill="#4D3E34"/><path id="Path 31" d="M489.707 273.53C495.589 273.53 502.942 275.001 502.942 294.118C502.942 302.942 499.677 327.618 491.177 338.236C485.295 345.589 435.853 342.648 427.942 342.648L425.001 330.883C425.001 330.883 446.928 326.236 470.178 322.354C470.178 322.354 472.119 314.354 475.34 298.942C479.413 279.412 483.648 273.53 489.707 273.53Z" fill="#1B3963"/><path id="Path 32" d="M488.236 269.118C480.883 273.53 475.001 291.897 475.001 307.353C475.001 326.471 479.413 347.059 477.942 366.177C477.31 373.516 477.31 380.896 477.942 388.236H523.53V269.118H488.236Z" fill="#22477D"/><g id="Group 10"><path id="Path 33" d="M485.706 493.56C486.408 492.398 486.775 491.064 486.765 489.707C486.626 488.026 485.872 486.455 484.647 485.295C477.941 477.942 475 475.001 475 475.001L463.235 483.825C464.739 485.378 465.907 487.224 466.667 489.248C467.426 491.272 467.759 493.431 467.647 495.59C467.687 498.778 466.651 501.886 464.706 504.413C464.706 504.413 458.824 507.354 458.824 516.178H468.148C469.142 516.177 470.118 515.924 470.988 515.443C471.857 514.962 472.59 514.269 473.119 513.428L485.706 493.56Z" fill="#212121"/><path id="Path 34" d="M498.53 404.413C480.883 408.825 455.883 411.766 455.883 411.766C466.177 438.237 480.883 479.413 480.883 479.413L461.765 488.237C461.765 488.237 419.53 426.472 419.53 403.388C419.53 391.182 429.412 376.476 488.236 369.123C508.736 366.564 516.177 376.476 516.177 385.299C516.177 397.06 507.354 402.207 498.53 404.413Z" fill="#6D4C41"/></g><g id="Group 11"><path id="Path 35" d="M413.236 489.707C413.236 489.707 412.721 491.869 405.883 505.884C404.03 509.678 402.824 516.178 398.53 516.178C395.93 516.178 366.93 504.207 363.236 502.943C363.236 500.002 367.648 495.59 375.001 495.59C380.883 495.59 386.766 497.061 389.707 497.061C392.648 497.061 397.06 483.825 397.06 483.825L413.236 489.707Z" fill="#212121"/><path id="Path 36" d="M513.236 377.942C542.486 377.942 552.942 389.707 552.942 389.707C552.942 389.707 552.942 420.589 525.001 420.589H450.001C450.001 435.295 413.339 494.883 413.236 495.589L394.118 486.766C394.118 486.766 413.236 427.457 423.368 401.766C425.383 396.666 429.412 392.648 440.192 388.722C468.662 378.368 507.559 377.942 513.236 377.942Z" fill="#8D6E63"/></g><path id="Path 37" d="M420.589 350.001H445.589C445.589 344.119 442.648 342.648 436.765 342.648C422.06 342.648 420.589 350.001 420.589 350.001Z" fill="#FAFAFA"/><path id="Path 38" d="M457.355 336.765H452.943C450.811 336.765 442.531 333.824 438.237 333.824C436.031 333.824 430.458 335.883 427.943 336.765C425.678 337.559 422.061 343.839 422.061 345.589C422.061 346.677 422.473 347.06 423.532 347.06C425.003 347.06 429.414 345.589 435.297 345.589C437.518 345.589 445.591 347.06 448.532 347.06H457.356L457.355 336.765Z" fill="#6D584A"/><path id="Path 39" d="M479.413 261.766C481.94 261.796 484.445 261.295 486.766 260.295C487.869 263.101 488.37 266.107 488.237 269.119C488.237 272.06 489.708 275.001 492.649 275.001C517.649 275.001 513.237 254.413 513.237 254.413C513.237 254.413 508.825 250.001 508.825 247.06V235.295C508.825 213.236 501.472 202.942 485.296 202.942C469.12 202.942 457.358 214.28 457.358 226.471C457.358 242.648 467.648 261.766 479.413 261.766Z" fill="#6D584A"/><path id="Path 40" d="M485.296 198.53C507.355 198.53 511.767 216.177 511.767 225.001C511.767 232.677 509.061 239.001 508.826 242.648C508.753 243.898 508.826 247.06 508.826 247.06C508.826 247.06 497.9 245.928 493.502 243.398C492.828 243.037 492.259 242.507 491.852 241.86C491.444 241.212 491.212 240.471 491.178 239.707C491.974 237.327 492.468 234.857 492.649 232.354C492.762 231.003 492.375 229.658 491.562 228.573C490.749 227.489 489.565 226.741 488.237 226.472C485.296 226.472 483.825 228.295 483.825 233.825C482.86 233.939 481.886 233.706 481.077 233.167C480.269 232.628 479.678 231.818 479.413 230.884C478.589 227.531 475.428 219.119 472.06 219.119C469.119 219.119 464.707 226.472 457.354 226.472C457.355 216.177 460.296 198.53 485.296 198.53Z" fill="#212121"/><path id="Path 41" d="M482.353 345.589C479.692 330.548 478.706 315.259 479.412 300.001C480.206 277.53 488.236 269.119 488.236 269.119C488.236 269.119 489.707 270.59 494.118 270.59C507.353 270.59 513.236 257.355 513.236 257.355L523.53 269.12V388.237H502.942C502.942 388.237 485.295 382.137 485.295 370.59C485.291 368.001 483.633 353.104 482.353 345.589Z" fill="#FFB300"/><path id="Path 42" d="M513.236 254.412C513.236 254.412 532.354 267.647 541.174 284.736C549.542 300.913 551.395 332.957 551.1 346.898C551.468 380.883 554.409 383.825 554.409 399.998C554.409 399.998 548.6 405.88 527.938 405.88C507.276 405.88 500.129 392.38 499.997 389.703C499.365 376.821 499.997 364.703 497.056 341.174C496.148 333.824 491.174 319.118 491.174 304.412C491.07 295.531 493.632 286.822 498.527 279.412C513.236 258.824 513.236 254.412 513.236 254.412Z" fill="#22477D"/><path id="Path 43" d="M519.12 277.942C529.414 277.942 535.296 286.766 535.296 313.236C535.296 324.927 533.237 340.486 527.943 345.589C524.767 348.663 514.708 350.001 504.414 350.001H457.354V336.766C476.472 332.354 505.883 326.472 505.883 326.472V302.942C505.883 288.236 508.826 277.942 519.12 277.942Z" fill="#254E8A"/></g><g id="Group 13"><path id="Path 44" d="M380.883 350.001H413.236V348.369C413.238 348.001 413.101 347.645 412.853 347.373C412.606 347.101 412.265 346.931 411.898 346.898L382.486 344.148C382.099 344.112 381.713 344.231 381.413 344.479C381.113 344.727 380.924 345.084 380.886 345.471V345.471L380.883 350.001Z" fill="#FAFAFA"/><path id="Path 45" d="M380.883 350H413.236L380.883 347.059V350Z" fill="#E0E0E0"/></g><g id="Group 15"><path id="Path 46" d="M594.119 273.53C594.119 329.045 576.472 339.177 576.472 377.942C576.472 408.927 578.649 438.236 537.31 438.236H475.001V427.942C475.001 425.992 475.776 424.122 477.155 422.743C478.534 421.364 480.404 420.589 482.354 420.589H537.311C543.017 420.589 550.546 419.883 553.87 416.516C558.929 411.428 558.885 396.692 558.841 382.428V377.943C558.841 357.605 563.135 343.869 567.282 330.561C571.811 316.076 576.488 301.149 576.488 273.532C576.508 271.595 577.291 269.743 578.668 268.38C580.045 267.017 581.904 266.253 583.841 266.253H594.135L594.119 273.53Z" fill="#546E7A"/><path id="Path 47" d="M482.354 445.589H537.31C552.71 445.589 563.91 441.854 571.575 434.163C583.975 421.722 583.825 402.604 583.825 382.354V377.942C583.825 361.413 587.207 350.574 591.178 338.015C596.016 322.486 601.472 304.897 601.472 273.53C601.472 271.58 600.698 269.709 599.319 268.33C597.94 266.951 596.07 266.177 594.119 266.177H586.766V273.53C586.766 302.662 581.854 318.398 577.09 333.63C572.99 346.762 569.119 359.174 569.119 377.939V382.351C569.119 399.469 569.219 415.63 561.148 423.733C556.383 428.512 548.574 430.833 537.295 430.833H475.001V438.186C475.001 440.136 475.776 442.006 477.155 443.385C478.534 444.764 480.404 445.539 482.354 445.539V445.589Z" fill="#455A64"/><path id="Path 48" d="M522.061 439.706C523.062 439.705 524.034 439.363 524.815 438.736C525.597 438.11 526.142 437.236 526.361 436.258C526.58 435.281 526.459 434.258 526.02 433.358C525.581 432.458 524.848 431.734 523.943 431.306C523.693 431.188 498.531 418.983 498.531 401.218C498.531 397.233 499.502 392.644 507.105 392.644H575.005C575.589 392.653 576.17 392.545 576.713 392.327C577.256 392.11 577.75 391.786 578.167 391.375C578.584 390.965 578.915 390.476 579.141 389.936C579.367 389.396 579.483 388.817 579.483 388.232C579.483 387.647 579.367 387.068 579.141 386.529C578.915 385.989 578.584 385.5 578.167 385.089C577.75 384.679 577.256 384.355 576.713 384.137C576.17 383.92 575.589 383.812 575.005 383.821H507.108C496.373 383.821 489.708 390.483 489.708 401.221C489.708 424.589 518.929 438.692 520.179 439.28C520.767 439.559 521.409 439.705 522.061 439.707V439.706Z" fill="#263238"/><path id="Path 49" d="M499.855 511.31C499.855 511.31 502.943 505.884 525.002 505.884C539.576 505.884 545.811 508.266 548.237 509.693C548.975 510.057 549.615 510.591 550.105 511.252L552.017 510.652L553.488 510.373L558.826 509.947C558.591 506.932 555.426 497.065 525.002 497.065C494.578 497.065 491.428 506.928 491.178 509.942L500.002 510.648C499.999 510.876 499.949 511.102 499.855 511.31V511.31Z" fill="#263238"/><path id="Path 50" d="M475.002 518.325C475.855 514.854 486.487 505.884 525.002 505.884C563.517 505.884 574.208 514.855 575.002 518.325C574.987 518.217 574.987 518.108 575.002 518.001L583.826 517.295C583.561 513.913 579.414 497.06 525.002 497.06C470.59 497.06 466.457 513.913 466.178 517.295L475.002 518.001C475.017 518.108 475.017 518.217 475.002 518.325V518.325Z" fill="#546E7A"/><path id="Rectangle 3" d="M533.942 445H515.942V500H533.942V445Z" fill="#37474F"/><path id="Rectangle 4" d="M533.942 491H515.942C514.286 491 512.942 492.343 512.942 494V505C512.942 506.657 514.286 508 515.942 508H533.942C535.599 508 536.942 506.657 536.942 505V494C536.942 492.343 535.599 491 533.942 491Z" fill="#455A64"/><g id="Group 14"><path id="Path 51" d="M525.002 526.472C525.582 526.472 526.155 526.357 526.691 526.136C527.226 525.914 527.712 525.589 528.122 525.179C528.532 524.77 528.857 524.283 529.078 523.748C529.3 523.213 529.414 522.639 529.414 522.06V501.472C529.414 500.301 528.95 499.179 528.122 498.352C527.295 497.524 526.172 497.06 525.002 497.06C523.832 497.06 522.71 497.524 521.883 498.352C521.055 499.179 520.59 500.301 520.59 501.472V501.472V522.06C520.59 523.23 521.055 524.352 521.883 525.179C522.71 526.007 523.832 526.472 525.002 526.472V526.472Z" fill="#78909C"/><path id="Rectangle 5" d="M528.942 522H521.942C520.838 522 519.942 522.895 519.942 524V530C519.942 531.104 520.838 532 521.942 532H528.942C530.047 532 530.942 531.104 530.942 530V524C530.942 522.895 530.047 522 528.942 522Z" fill="#263238"/><path id="Rectangle 6" d="M583.942 516H575.942C574.838 516 573.942 516.895 573.942 518V524C573.942 525.104 574.838 526 575.942 526H583.942C585.047 526 585.942 525.104 585.942 524V518C585.942 516.895 585.047 516 583.942 516Z" fill="#263238"/><path id="Rectangle 7" d="M557.942 508H550.942C549.838 508 548.942 508.895 548.942 510V518C548.942 519.104 549.838 520 550.942 520H557.942C559.047 520 559.942 519.104 559.942 518V510C559.942 508.895 559.047 508 557.942 508Z" fill="#263238"/><path id="Rectangle 8" d="M499.942 508H490.942C489.838 508 488.942 508.895 488.942 510V518C488.942 519.104 489.838 520 490.942 520H499.942C501.047 520 501.942 519.104 501.942 518V510C501.942 508.895 501.047 508 499.942 508Z" fill="#263238"/><path id="Rectangle 9" d="M474.942 516H466.942C465.838 516 464.942 516.895 464.942 518V524C464.942 525.104 465.838 526 466.942 526H474.942C476.047 526 476.942 525.104 476.942 524V518C476.942 516.895 476.047 516 474.942 516Z" fill="#263238"/></g></g><g id="surface1"><path id="Path 52" d="M255.883 325.001C255.926 322.252 256.694 319.563 258.109 317.205C259.524 314.848 261.536 312.906 263.942 311.576L262.471 308.988C259.613 310.581 257.226 312.901 255.553 315.714C253.88 318.526 252.979 321.731 252.942 325.003L255.883 325.001Z" fill="#33691E"/><path id="Path 53" d="M254.412 325.001L257.353 324.913C257.268 322.287 257.839 319.681 259.015 317.331C260.191 314.982 261.935 312.963 264.088 311.457L262.383 309.045C259.838 310.837 257.777 313.233 256.386 316.018C254.995 318.803 254.317 321.889 254.412 325.001V325.001Z" fill="#33691E"/><path id="Path 54" d="M254.412 325.001C254.508 321.889 253.83 318.803 252.439 316.018C251.048 313.233 248.987 310.837 246.442 309.045L244.736 311.457C246.902 312.971 248.653 315.004 249.83 317.371C251.007 319.737 251.571 322.36 251.471 325.001H254.412Z" fill="#33691E"/><path id="Path 55" d="M241.911 298.53C235.573 298.53 228.338 303.515 226.47 304.868C230.514 306.442 233.235 311.353 240.396 312.294C245.175 312.894 246.278 311.162 246.278 311.162C246.278 311.162 250.057 310.794 250.057 305.28C250 302.43 247.589 298.53 241.911 298.53Z" fill="#558B2F"/><path id="Path 56" d="M240.001 320.472C233.163 319.516 230.575 306.443 226.472 304.872C229.663 304.401 234.678 306.343 246.222 311.166C248.809 318.266 245.015 321.251 240.001 320.472Z" fill="#33691E"/><path id="Path 57" d="M262.442 299.781C268.677 296.708 278.413 300.163 280.883 301.046C277.251 303.222 277.765 314.958 271.133 317.134C266.457 318.605 262.824 316.884 262.442 310.502C257.236 307.56 258.016 301.942 262.442 299.781Z" fill="#558B2F"/><path id="Path 58" d="M271.133 317.135C277.765 314.959 277.251 303.223 280.883 301.047C277.633 301.312 272.956 304.12 262.442 310.503C262.824 316.883 266.342 318.663 271.133 317.135Z" fill="#33691E"/><path id="Rectangle 10" d="M255.941 302H252.941V323H255.941V302Z" fill="#33691E"/><path id="Path 59" d="M254.412 285.295C257.117 288.279 258.679 292.123 258.824 296.148C258.824 302.942 254.412 302.942 254.412 302.942C254.412 302.942 250 302.942 250 298.868C250 295.324 254.412 292.089 254.412 285.295Z" fill="#558B2F"/><path id="Path 60" d="M270.589 327.942L266.177 350.001H242.648L238.236 327.942H270.589Z" fill="#E64A19"/><path id="Path 61" d="M238.236 332.354H270.589C270.979 332.354 271.353 332.199 271.629 331.923C271.905 331.647 272.06 331.273 272.06 330.883V325.001H236.765V330.883C236.792 331.264 236.956 331.623 237.226 331.893C237.496 332.163 237.855 332.327 238.236 332.354Z" fill="#BF360C"/></g><g id="Group 16"><path id="Rectangle 11" d="M312.941 322H265.941V337H312.941V322Z" fill="#FFB300"/><path id="Rectangle 12" d="M305.941 322H302.941V337H305.941V322Z" fill="#FF8F00"/><path id="Rectangle 13" d="M275.941 322H273.941V337H275.941V322Z" fill="#FF8F00"/><path id="Rectangle 14" d="M298.941 327H280.941V332H298.941V327Z" fill="#FF8F00"/></g><g id="Group 17"><path id="Rectangle 15" d="M312.941 337H265.941V350H312.941V337Z" fill="#2E7D32"/><path id="Rectangle 16" d="M305.941 337H302.941V350H305.941V337Z" fill="#7CB342"/><path id="Rectangle 17" d="M275.941 337H273.941V350H275.941V337Z" fill="#7CB342"/><path id="Rectangle 18" d="M298.941 341H280.941V346H298.941V341Z" fill="#7CB342"/></g><g id="Group 18"><path id="Rectangle 19" d="M307.941 309H266.941V322H307.941V309Z" fill="#1565C0"/><path id="Rectangle 20" d="M302.941 309H299.941V322H302.941V309Z" fill="#64B5F6"/><path id="Rectangle 21" d="M274.941 309H271.941V322H274.941V309Z" fill="#64B5F6"/><path id="Rectangle 22" d="M294.941 313H279.941V318H294.941V313Z" fill="#64B5F6"/></g><g id="Group 20"><g id="Group 19"><path id="Path 62" d="M291.177 286.764L289.706 302.941H295.162C296.129 302.94 297.068 302.621 297.836 302.034C298.604 301.447 299.157 300.624 299.412 299.691L301.427 292.338C301.734 291.211 301.581 290.008 301.002 288.994C300.423 287.979 299.465 287.236 298.339 286.926C297.955 286.821 297.56 286.766 297.162 286.764H291.177Z" fill="url(#paint2_radial)"/><path id="Path 63" d="M288.103 304.407H295.162C296.451 304.404 297.703 303.978 298.726 303.195C299.749 302.411 300.486 301.313 300.824 300.069L302.839 292.716C303.042 291.981 303.097 291.212 303.001 290.454C302.905 289.697 302.66 288.966 302.28 288.304C301.898 287.632 301.387 287.042 300.776 286.568C300.165 286.093 299.467 285.744 298.721 285.539C298.216 285.406 297.696 285.338 297.174 285.337H289.821L288.103 304.407ZM297.162 288.23C297.425 288.226 297.687 288.26 297.941 288.33C298.314 288.432 298.663 288.607 298.969 288.844C299.274 289.081 299.53 289.376 299.721 289.712C299.912 290.048 300.035 290.419 300.083 290.803C300.131 291.186 300.103 291.576 300 291.948V291.948L297.985 299.307C297.815 299.927 297.447 300.473 296.937 300.863C296.428 301.254 295.804 301.467 295.162 301.469H291.309L292.515 288.234L297.162 288.23Z" fill="#1B3963"/></g><path id="Path 64" d="M292.647 308.824H275C273.22 299.612 272.236 290.263 272.059 280.883C272.059 280.492 272.214 280.118 272.49 279.842C272.766 279.567 273.14 279.412 273.53 279.412H294.118C294.508 279.412 294.882 279.567 295.158 279.842C295.434 280.118 295.589 280.492 295.589 280.883C295.412 290.263 294.428 299.612 292.647 308.824V308.824Z" fill="#254E8A"/></g><g id="Group 21"><path id="Path 65" d="M233.839 438.604L233.824 519.119H247.045L247.06 438.604L247.045 357.354H233.824L233.839 438.604Z" fill="#4E342E"/><path id="Path 66" d="M297.075 437.869L297.06 519.119H310.281L310.296 437.869L310.281 357.354H297.06L297.075 437.869Z" fill="#4E342E"/><path id="Rectangle 23" d="M448.941 350.001H212.941V366.001H448.941V350.001Z" fill="#6D4C41"/><path id="Rectangle 24" d="M368.941 505.001H212.941V520.001H368.941V505.001Z" fill="#6D4C41"/></g></g></g><defs><radialGradient id="paint0_radial" cx="0" cy="0" r="1" gradientUnits="userSpaceOnUse" gradientTransform="translate(-1658.1 -2623.98) rotate(180) scale(87.5)"><stop offset="0.76" stop-color="#E1E1E1"/><stop offset="0.78" stop-color="#E6E6E6" stop-opacity="0.639"/><stop offset="0.8" stop-color="#ECECEC" stop-opacity="0.302"/><stop offset="0.81" stop-color="#EFEFEF" stop-opacity="0.078"/><stop offset="0.82" stop-color="#F0F0F0" stop-opacity="0"/></radialGradient><linearGradient id="paint1_linear" x1="407.354" y1="-1031.82" x2="407.354" y2="-1058.29" gradientUnits="userSpaceOnUse"><stop stop-color="white" stop-opacity="0"/><stop offset="1" stop-color="#B3B3B3" stop-opacity="0.8"/></linearGradient><radialGradient id="paint2_radial" cx="0" cy="0" r="1" gradientUnits="userSpaceOnUse" gradientTransform="translate(-6882.17 -4862.71) rotate(180) scale(7.08784)"><stop offset="0.76" stop-color="#EBEBEB"/><stop offset="0.77" stop-color="#ECECEC" stop-opacity="0.859"/><stop offset="0.78" stop-color="#EEEEEE" stop-opacity="0.659"/><stop offset="0.79" stop-color="#F0F0F0" stop-opacity="0.478"/><stop offset="0.8" stop-color="#F2F2F2" stop-opacity="0.329"/><stop offset="0.81" stop-color="#F3F3F3" stop-opacity="0.212"/><stop offset="0.82" stop-color="#F4F4F4" stop-opacity="0.122"/><stop offset="0.83" stop-color="#F4F4F4" stop-opacity="0.051"/><stop offset="0.85" stop-color="#F5F5F5" stop-opacity="0.012"/><stop offset="0.87" stop-color="#F5F5F5" stop-opacity="0"/></radialGradient></defs></svg>