<svg xmlns="http://www.w3.org/2000/svg" xmlns:xlink="http://www.w3.org/1999/xlink" width="790.941" height="542.648" viewBox="0 0 790.941 542.648"><defs><radialGradient id="a" cx="-1225.201" cy="-1782.663" r="87.5" gradientTransform="translate(-2745.035 -3820.41) rotate(180)" gradientUnits="userSpaceOnUse"><stop offset="0.76" stop-color="#e1e1e1"/><stop offset="0.78" stop-color="#e6e6e6" stop-opacity="0.639"/><stop offset="0.8" stop-color="#ececec" stop-opacity="0.302"/><stop offset="0.81" stop-color="#efefef" stop-opacity="0.078"/><stop offset="0.82" stop-color="#f0f0f0" stop-opacity="0"/></radialGradient><linearGradient id="b" x1="0.5" y1="-58.479" x2="0.5" y2="-59.479" gradientUnits="objectBoundingBox"><stop offset="0" stop-color="#fff" stop-opacity="0"/><stop offset="1" stop-color="#b3b3b3" stop-opacity="0.8"/></linearGradient><radialGradient id="c" cx="-3806.647" cy="-3053.016" r="5.204" gradientTransform="translate(-9941.593 -7807.697) rotate(180) scale(1.362 1.362)" gradientUnits="userSpaceOnUse"><stop offset="0.76" stop-color="#ebebeb"/><stop offset="0.77" stop-color="#ececec" stop-opacity="0.859"/><stop offset="0.78" stop-color="#eee" stop-opacity="0.659"/><stop offset="0.79" stop-color="#f0f0f0" stop-opacity="0.478"/><stop offset="0.8" stop-color="#f2f2f2" stop-opacity="0.329"/><stop offset="0.81" stop-color="#f3f3f3" stop-opacity="0.212"/><stop offset="0.82" stop-color="#f4f4f4" stop-opacity="0.122"/><stop offset="0.83" stop-color="#f4f4f4" stop-opacity="0.051"/><stop offset="0.85" stop-color="#f5f5f5" stop-opacity="0.012"/><stop offset="0.87" stop-color="#f5f5f5" stop-opacity="0"/></radialGradient></defs><g transform="translate(-997.059 -286)"><path d="M673.088,373l-.882,6.1a1.278,1.278,0,0,1-.382.735,1.47,1.47,0,0,1-.735.368l-6.088.882,6.088.882a1.28,1.28,0,0,1,1.118,1.118l.882,6.088.882-6.1a1.295,1.295,0,0,1,1.118-1.1l6.088-.882-6.1-.882a1.295,1.295,0,0,1-1.1-1.118Z" transform="translate(332.059 324.765)" fill="#fafafa"/><path d="M8.088,0,7.206,6.1a1.278,1.278,0,0,1-.382.735,1.47,1.47,0,0,1-.735.368L0,8.088l6.088.882a1.28,1.28,0,0,1,1.118,1.118l.882,6.088.882-6.1a1.295,1.295,0,0,1,1.118-1.1l6.088-.882-6.1-.882a1.47,1.47,0,0,1-.735-.368,1.47,1.47,0,0,1-.368-.75Z" transform="matrix(0.017, -1, 1, 0.017, 1023.156, 653.155)" fill="#fafafa"/><g transform="translate(1597.06 338.941)"><g transform="translate(26.228 26.731)"><ellipse cx="61.5" cy="61" rx="61.5" ry="61" transform="translate(-0.287 0.328)" fill="#cdcdcd"/><path d="M188,193.855A61.044,61.044,0,0,0,279.177,246.9a433.017,433.017,0,0,0-88.912-69.779A60.676,60.676,0,0,0,188,193.855Z" transform="translate(-187.758 -133.086)" fill="#c8c8c8"/><g transform="translate(0.243 0.578)"><path d="M228.34,197.184l5.794-1.662h0l.691-.206a35.118,35.118,0,0,1,13.956.294c8.529,2.529,3.6,8.912,13.794,6,1.309-.368,1.368-6.412.706-8.721-.279-.985-4.779-1.838-6.721-2.353a3.456,3.456,0,0,1-2.676-3.147l1.926-4.412a3.794,3.794,0,0,0-2-3.324l-7.912-3.074a8.676,8.676,0,0,1-4.191-3.412l-9.191-9.029A60.676,60.676,0,0,0,220.9,199.964" transform="translate(-220.898 -139.772)" fill="#b6b6b6"/><path d="M245.218,213.826h0c-.485,1.662-2.221,8.074-3.676,14.882-.25,1.294-.662,3.074-1.074,4.838a60.074,60.074,0,0,1-11.632-6.1,62.335,62.335,0,0,1-9.485-7.882l25.985-6.162a3.6,3.6,0,0,0-.118.426Z" transform="translate(-200.262 -116.591)" fill="#afafaf"/><path d="M169.428,168.791l4.691,16.441C176,191.805,181.59,190.2,185.884,189c10.529-2.941,11.559,3.1,12.691,7.044s1.868,6.574,4.824,5.721.1-7.132,5.029-8.544l2.941-.824,16.088-4.588a61.1,61.1,0,0,0-47.647-40.235,28.531,28.531,0,0,1,3.544,6.25c1.132,3.941-2.868,6.147-8.456,7.75C168.267,163.438,169.149,167.791,169.428,168.791Z" transform="translate(-108.678 -147.57)" fill="#b9b9b9"/><path d="M180.38,209.053h0l2.515,8.824s4.412,5.559,5.456,6.691a111.761,111.761,0,0,1,13.044,14.956,60.292,60.292,0,0,0,7.353-5.118c1.029-.838,2.015-1.706,2.941-2.6l-3.676-12.9V194.053l-3.735-2.074-.5-.279-2.618.735-5.265,1.471c-2.309.662-4.6,3.809-6.015,6.324C187.012,207.141,184.306,207.906,180.38,209.053Z" transform="translate(-109.306 -126.803)" fill="#b9b9b9"/><path d="M213.734,193.7a60.927,60.927,0,0,0,27.088,50.735A31.088,31.088,0,0,1,257.1,230.822h.118c1.338-.559,12.456-5.706,9.279-16.853-1.044-3.6-3.765-13.147-20.206-8.456-9.853,2.824-17.368,1.471-18.309-1.882-2.809-9.853-.471-14.088-.471-14.088a2.607,2.607,0,0,1-.456-.221h-.088c-3.6-2-6.118-9.294-11.044-11.882A60.735,60.735,0,0,0,213.734,193.7Z" transform="translate(-213.734 -133.513)" fill="#9b9b9b"/><path d="M168.586,230.457c3.044,10.824,9.809,9.6,9.809,9.6,4.9-1.368,16.574,1.471,20.4,9.838,1.029-.838,2.015-1.706,2.941-2.6s2.029-1.926,2.941-2.941c-.838-7.118,1.471-19.118-1.471-29.147-1.9-6.574,6.515-13.235,8.588-15.971,2.779-3.662,6.191-8.059,7.485-12.176-.4-1.471-.853-3.044-1.382-4.529a60.809,60.809,0,0,0-15.1-23.75,18.456,18.456,0,0,0-1.559,12.176c1.471,4.941-4.044,10.765-2.353,16.676a11.765,11.765,0,0,1,2.941-.515c2.941-.1,4.412,1.382,4.868,2.941l.926,3.279c.485,1.662-.544,2.941-2.529,3.574-2.632.75-2.765,1.471-2.294,3.147s-.426,4.75-2.4,5.309l-6.25,1.779.1.368c3.471,12.559-1.382,17.794-7.9,19.632-12.5,3.574-16.015-2.529-16.015-2.529h0C168.454,225.192,168.219,229.148,168.586,230.457Z" transform="translate(-99.336 -142.295)" fill="#aaa"/></g></g><path d="M236.5,129A87.5,87.5,0,1,1,149,216.5,87.5,87.5,0,0,1,236.5,129Zm0,148.53a61.03,61.03,0,1,0-61.029-61.03h0a61.03,61.03,0,0,0,61.03,61.03Z" transform="translate(-149 -129)" fill="url(#a)"/></g><path d="M378.892,93l-1.471,10.529a2.279,2.279,0,0,1-.647,1.279,2.368,2.368,0,0,1-1.279.647l-10.515,1.471,10.529,1.471a2.28,2.28,0,0,1,1.279.647,2.367,2.367,0,0,1,.647,1.279l1.471,10.515,1.471-10.529a2.221,2.221,0,0,1,.721-1.132,2.367,2.367,0,0,1,1.279-.647l10.515-1.471-10.529-1.471a2.235,2.235,0,0,1-1.265-.824,2.368,2.368,0,0,1-.647-1.279Z" transform="translate(1061.55 193)" fill="#fff"/><path d="M639.382,195l-2.015,13.853a2.942,2.942,0,0,1-.838,1.676,3.058,3.058,0,0,1-1.677.853l-13.853,2,13.853,2.015a2.941,2.941,0,0,1,2.53,2.515l2,13.853,2.015-13.853a2.942,2.942,0,0,1,.838-1.676,3.059,3.059,0,0,1,1.677-.853l13.853-2-13.853-2.015a2.941,2.941,0,0,1-2.529-2.515Z" transform="translate(420.177 241)" fill="#fafafa"/><path d="M257.029,380l-1.206,8.309a1.824,1.824,0,0,1-.515,1.015,1.632,1.632,0,0,1-1,.5L246,391.029l8.309,1.206a1.823,1.823,0,0,1,1.015.515,1.632,1.632,0,0,1,.5,1l1.206,8.309,1.206-8.309a1.823,1.823,0,0,1,.515-1.015,1.632,1.632,0,0,1,1-.5l8.309-1.206-8.309-1.206a1.823,1.823,0,0,1-1.015-.515,1.632,1.632,0,0,1-.5-1Z" transform="translate(1361.354 328.06)" fill="#fafafa"/><path d="M257.029,380l-1.206,8.309a1.824,1.824,0,0,1-.515,1.015,1.632,1.632,0,0,1-1,.5L246,391.029l8.309,1.206a1.823,1.823,0,0,1,1.015.515,1.632,1.632,0,0,1,.5,1l1.206,8.309,1.206-8.309a1.823,1.823,0,0,1,.515-1.015,1.632,1.632,0,0,1,1-.5l8.309-1.206-8.309-1.206a1.823,1.823,0,0,1-1.015-.515,1.632,1.632,0,0,1-.5-1Z" transform="translate(755.354 174.06)" fill="#fafafa"/><circle cx="4.5" cy="4.5" r="4.5" transform="translate(1563 338)" fill="#fff"/><path d="M408.088,248l-.882,6.1a1.295,1.295,0,0,1-1.118,1.1l-6.088.882,6.1.882a1.295,1.295,0,0,1,1.1,1.118l.882,6.088.882-6.1a1.295,1.295,0,0,1,1.118-1.1l6.088-.882-6.1-.882a1.295,1.295,0,0,1-1.1-1.118Z" transform="translate(986.765 265.942)" fill="#fafafa"/><path d="M467.088,199l-.882,6.1a1.295,1.295,0,0,1-1.118,1.1l-6.088.882,6.1.882a1.3,1.3,0,0,1,1.1,1.118l.882,6.088.882-6.1a1.295,1.295,0,0,1,1.118-1.1l6.088-.882-6.1-.882a1.295,1.295,0,0,1-1.1-1.118Z" transform="translate(841 242.883)" fill="#fafafa"/><path d="M238.441,285l-1.691,11.632a2.441,2.441,0,0,1-.706,1.471,2.544,2.544,0,0,1-1.471.721L223,300.441l11.632,1.691a2.441,2.441,0,0,1,1.471.706,2.544,2.544,0,0,1,.721,1.471l1.618,11.574,1.691-11.632a2.441,2.441,0,0,1,.706-1.471,2.544,2.544,0,0,1,1.471-.721l11.574-1.618L242.25,298.75a2.441,2.441,0,0,1-1.471-.706,2.544,2.544,0,0,1-.721-1.471Z" transform="translate(1409.354 283.353)" fill="#fafafa"/><path d="M167.088,363l-.882,6.1a1.3,1.3,0,0,1-1.118,1.1l-6.088.882,6.1.882a1.295,1.295,0,0,1,1.1,1.118l.882,6.088.882-6.1a1.295,1.295,0,0,1,1.118-1.1l6.088-.882-6.1-.882a1.295,1.295,0,0,1-1.1-1.118Z" transform="translate(1582.178 320.059)" fill="#fafafa"/><path d="M557.088,251l-.882,6.1a1.3,1.3,0,0,1-1.118,1.1l-6.088.882,6.088.882a1.279,1.279,0,0,1,1.118,1.118l.882,6.088.882-6.1a1.295,1.295,0,0,1,1.118-1.1l6.088-.882-6.088-.882a1.279,1.279,0,0,1-1.118-1.118Z" transform="translate(618.647 267.353)" fill="#fafafa"/><path d="M225.088,363l-.882,6.088a1.279,1.279,0,0,1-1.118,1.118l-6.088.882,6.088.882a1.279,1.279,0,0,1,1.118,1.118l.882,6.088.882-6.1a1.471,1.471,0,0,1,.368-.735,1.338,1.338,0,0,1,.75-.368l6.088-.882-6.088-.882a1.279,1.279,0,0,1-1.118-1.118Z" transform="translate(1438.884 320.059)" fill="#fafafa"/><path d="M377.029,173l-1.206,8.309a1.823,1.823,0,0,1-.515,1.015,1.632,1.632,0,0,1-1,.5L366,184.029l8.309,1.206a1.823,1.823,0,0,1,1.015.515,1.632,1.632,0,0,1,.5,1l1.206,8.309,1.206-8.309a1.824,1.824,0,0,1,.515-1.015,1.632,1.632,0,0,1,1-.5l8.309-1.206-8.309-1.206a1.824,1.824,0,0,1-1.015-.515,1.632,1.632,0,0,1-.5-1Z" transform="translate(1064.883 230.647)" fill="#fff"/><path d="M608.029,383l-1.206,8.309a1.824,1.824,0,0,1-.515,1.015,1.633,1.633,0,0,1-1,.5L597,394.029l8.309,1.206a1.824,1.824,0,0,1,1.015.515,1.632,1.632,0,0,1,.5,1l1.206,8.309,1.206-8.309a1.824,1.824,0,0,1,.515-1.015,1.633,1.633,0,0,1,1-.5l8.309-1.206-8.309-1.206a1.823,1.823,0,0,1-1.015-.515,1.633,1.633,0,0,1-.5-1Z" transform="translate(494.177 329.471)" fill="#fff"/><path d="M11.029,0,9.823,8.309a1.824,1.824,0,0,1-.515,1.015,1.633,1.633,0,0,1-1,.5L0,11.029l8.309,1.206a1.824,1.824,0,0,1,1.015.515,1.632,1.632,0,0,1,.5,1l1.206,8.309,1.206-8.309a1.824,1.824,0,0,1,.515-1.015,1.633,1.633,0,0,1,1-.5l8.309-1.206L13.75,9.824a1.823,1.823,0,0,1-1.015-.515,1.633,1.633,0,0,1-.5-1Z" transform="matrix(0.017, -1, 1, 0.017, 1098.863, 547.659)" fill="#fff"/><path d="M505.029,268l-1.206,8.309a1.823,1.823,0,0,1-.515,1.015,1.632,1.632,0,0,1-1,.5L494,279.029l8.309,1.206a1.824,1.824,0,0,1,1.015.515,1.632,1.632,0,0,1,.5,1l1.206,8.309,1.206-8.309a1.823,1.823,0,0,1,.515-1.015,1.632,1.632,0,0,1,1-.5l8.309-1.206-8.309-1.206a1.823,1.823,0,0,1-1.015-.515,1.632,1.632,0,0,1-.5-1Z" transform="translate(748.648 275.353)" fill="#fff"/><path d="M534.853,206l-2.206,14.956a3.22,3.22,0,0,1-.912,1.824,3.323,3.323,0,0,1-1.809.912L515,225.853l14.956,2.206a3.235,3.235,0,0,1,2.735,2.721l2.162,14.926,2.206-14.956a3.222,3.222,0,0,1,.912-1.824,3.324,3.324,0,0,1,1.809-.912l14.926-2.162-14.956-2.206a3.235,3.235,0,0,1-2.735-2.721Z" transform="translate(679.118 246.177)" fill="#fff"/><ellipse cx="4.5" cy="4" rx="4.5" ry="4" transform="translate(1215 294)" fill="#fafafa"/><circle cx="3" cy="3" r="3" transform="translate(1281 324)" fill="#fff"/><ellipse cx="2.5" cy="3" rx="2.5" ry="3" transform="translate(1049 739)" fill="#fff"/><ellipse cx="2.5" cy="3" rx="2.5" ry="3" transform="matrix(0.469, -0.883, 0.883, 0.469, 1094.684, 611.963)" fill="#fff"/><circle cx="6" cy="6" r="6" transform="translate(1128 330)" fill="#fafafa"/><circle cx="6" cy="6" r="6" transform="translate(1178 679)" fill="#fafafa"/><ellipse cx="4.5" cy="4" rx="4.5" ry="4" transform="translate(1775 611)" fill="#eee"/><circle cx="4.412" cy="4.412" r="4.412" transform="translate(1433.824 558.162)" fill="#eee"/><circle cx="2.5" cy="2.5" r="2.5" transform="translate(1783 503)" fill="#fafafa"/><g transform="translate(1155.883 484.53)"><g transform="translate(167.647 14.706)"><path d="M444.22,356.4h20.956a2.941,2.941,0,1,0,0-5.882H444.22a42.368,42.368,0,0,1-9.235-.868h-.235c-.471-.088-4.868-.956-4.868-5.074a29.106,29.106,0,0,1,.985-6.162c3.044-13.118,6.221-24.4,8.324-31.853l.221-.765c.235-.838.5-1.809.779-2.838,1.471-5.485,5.368-20.044,9.588-20.044a2.941,2.941,0,0,0,0-5.882c-8.735,0-12.515,14.1-15.28,24.4-.265,1.015-.515,1.941-.75,2.765l-.221.779c-2.118,7.5-5.324,18.853-8.4,32.1A35.432,35.432,0,0,0,424,344.633c0,7.353,6.279,10.294,9.721,10.868A46.572,46.572,0,0,0,444.22,356.4Z" transform="translate(-424 -219.633)" fill="#ebebeb"/><path d="M428.75,238.632,430.22,238l24.662,120.588h-1.559a7.941,7.941,0,0,1-7.809-6.191L424.161,247.426a7.853,7.853,0,0,1,4.588-8.794Z" transform="translate(-410.764 -238)" fill="#fafafa"/></g><path d="M230,444h0a26.471,26.471,0,0,0,26.471,26.471H700.589A26.471,26.471,0,0,0,727.06,444Z" transform="translate(-230 -126.352)" opacity="0.2" fill="url(#b)"/><g transform="translate(204.412)"><path d="M420.324,318l-7.353,1.471H402.28a15.539,15.539,0,0,0-2.191.191c-1.353.235-3.676.647-5.25,1.015a4.662,4.662,0,0,0-2.706,1.618c-1.588,2-7.088,7.029-7.1,8.515,0,.338.073,1.1,1.221,1.206,1.4.132,9.029-4.412,9.029-4.412l5.882-.868,1.471,1.471a24.255,24.255,0,0,1-4.412,1.985c-1.471.515-1.471,1-1.471,1.735,0,.309.132,1,1.176,1.1,1.662.176,5-.412,7.529-.412a12.471,12.471,0,0,0,7.471-2.941h10.294Z" transform="translate(-358.559 -185.647)" fill="#4d3e34"/><path d="M398.706,279c5.882,0,13.235,1.471,13.235,20.588,0,8.824-3.265,33.5-11.765,44.118-5.882,7.353-55.324,4.412-63.235,4.412L334,336.353s21.927-4.647,45.177-8.529c0,0,1.941-8,5.162-23.412C388.412,284.882,392.647,279,398.706,279Z" transform="translate(-272.235 -204)" fill="#1b3963"/><path d="M333.235,276h0C325.882,280.412,320,298.779,320,314.235c0,19.118,4.412,39.706,2.941,58.824a128.48,128.48,0,0,0,0,22.059h45.588V276Z" transform="translate(-208.235 -205.412)" fill="#22477d"/><g transform="translate(56.294 170.179)"><path d="M371.882,434.559a7.353,7.353,0,0,0,1.059-3.853,6.853,6.853,0,0,0-2.118-4.412c-6.706-7.353-9.647-10.294-9.647-10.294l-11.765,8.824a15.735,15.735,0,0,1,4.412,11.765,14.176,14.176,0,0,1-2.941,8.823S345,448.353,345,457.177h9.324a5.882,5.882,0,0,0,4.971-2.75Z" transform="translate(-305.706 -309.708)" fill="#212121"/><path d="M404,379.425c-17.647,4.412-42.647,7.353-42.647,7.353,10.294,26.471,25,67.647,25,67.647l-19.118,8.824S325,401.484,325,378.4c0-12.206,9.882-26.912,68.706-34.265,20.5-2.559,27.941,7.353,27.941,16.176C421.647,372.072,412.824,377.219,404,379.425Z" transform="translate(-325 -343.721)" fill="#6d4c41"/></g><g transform="translate(0 179.412)"><path d="M445,427.882s-.515,2.162-7.353,16.177c-1.853,3.794-3.059,10.294-7.353,10.294-2.6,0-31.6-11.971-35.294-13.235,0-2.941,4.412-7.353,11.765-7.353,5.882,0,11.765,1.471,14.706,1.471S428.824,422,428.824,422Z" transform="translate(-395 -316.117)" fill="#212121"/><path d="M419.118,350c29.25,0,39.706,11.765,39.706,11.765s0,30.882-27.941,30.882h-75c0,14.706-36.662,74.294-36.765,75L300,458.824s19.118-59.309,29.25-85c2.015-5.1,6.044-9.118,16.824-13.044C374.544,350.426,413.441,350,419.118,350Z" transform="translate(-269.118 -350)" fill="#8d6e63"/></g><path d="M373,333.353h25c0-5.882-2.941-7.353-8.824-7.353C374.471,326,373,333.353,373,333.353Z" transform="translate(-315.647 -181.882)" fill="#fafafa"/><path d="M400.294,322.941h-4.412c-2.132,0-10.412-2.941-14.706-2.941-2.206,0-7.779,2.059-10.294,2.941-2.265.794-5.882,7.074-5.882,8.824,0,1.088.412,1.471,1.471,1.471,1.471,0,5.882-1.471,11.765-1.471,2.221,0,10.294,1.471,13.235,1.471h8.824Z" transform="translate(-306.176 -184.706)" fill="#6d584a"/><path d="M348.855,289.824a18.043,18.043,0,0,0,7.353-1.471,21.531,21.531,0,0,1,1.471,8.824c0,2.941,1.471,5.882,4.412,5.882,25,0,20.588-20.588,20.588-20.588s-4.412-4.412-4.412-7.353V263.353c0-22.059-7.353-32.353-23.529-32.353S326.8,242.338,326.8,254.529C326.8,270.706,337.09,289.824,348.855,289.824Z" transform="translate(-232.678 -226.588)" fill="#6d584a"/><path d="M355.941,228c22.059,0,26.471,17.647,26.471,26.471,0,7.676-2.706,14-2.941,17.647-.073,1.25,0,4.412,0,4.412s-10.926-1.132-15.324-3.662a4.412,4.412,0,0,1-2.324-3.691,29.926,29.926,0,0,0,1.471-7.353,5.529,5.529,0,0,0-4.412-5.882c-2.941,0-4.412,1.823-4.412,7.353a4.088,4.088,0,0,1-4.412-2.941c-.824-3.353-3.985-11.765-7.353-11.765-2.941,0-7.353,7.353-14.706,7.353C328,245.647,330.941,228,355.941,228Z" transform="translate(-233.882 -228)" fill="#212121"/><path d="M323.162,356.235a206.763,206.763,0,0,1-2.941-45.588c.794-22.471,8.824-30.882,8.824-30.882s1.471,1.471,5.882,1.471c13.235,0,19.118-13.235,19.118-13.235l10.294,11.765V398.883H343.751s-17.647-6.1-17.647-17.647C326.1,378.647,324.442,363.75,323.162,356.235Z" transform="translate(-204.045 -209.176)" fill="#ffb300"/><path d="M321.062,266S340.18,279.235,349,296.324c8.368,16.177,10.221,48.221,9.926,62.162.368,33.985,3.309,36.927,3.309,53.1,0,0-5.809,5.882-26.471,5.882s-27.809-13.5-27.941-16.177c-.632-12.882,0-25-2.941-48.529C303.974,345.412,299,330.706,299,316a44.412,44.412,0,0,1,7.353-25C321.062,270.412,321.062,266,321.062,266Z" transform="translate(-171.062 -210.118)" fill="#22477d"/><path d="M373.765,282c10.294,0,16.177,8.824,16.177,35.294,0,11.691-2.059,27.25-7.353,32.353-3.176,3.074-13.235,4.412-23.529,4.412H312V340.824c19.118-4.412,48.529-10.294,48.529-10.294V307C360.529,292.294,363.471,282,373.765,282Z" transform="translate(-217.882 -202.588)" fill="#254e8a"/></g><g transform="translate(222.059 145.611)"><path d="M395,332.875h32.353v-1.632a1.471,1.471,0,0,0-1.338-1.471l-29.412-2.75a1.471,1.471,0,0,0-1.6,1.323h0Z" transform="translate(-395 -327.015)" fill="#fafafa"/><path d="M395,331.941h32.353L395,329Z" transform="translate(-395 -326.082)" fill="#e0e0e0"/></g><g transform="translate(305.816 67.647)"><path d="M391.108,281.329c0,55.515-17.647,65.647-17.647,104.412,0,30.985,2.177,60.294-39.162,60.294H271.99V435.741a7.353,7.353,0,0,1,7.353-7.353H334.3c5.706,0,13.235-.706,16.559-4.073,5.059-5.088,5.015-19.824,4.971-34.088v-4.485c0-20.338,4.294-34.074,8.441-47.382,4.529-14.485,9.206-29.412,9.206-57.029h0a7.353,7.353,0,0,1,7.353-7.279h10.294Z" transform="translate(-261.629 -273.976)" fill="#546e7a"/><path d="M274.353,453.412h54.956c15.4,0,26.6-3.735,34.265-11.426,12.4-12.441,12.25-31.559,12.25-51.809v-4.412c0-16.529,3.382-27.368,7.353-39.927,4.838-15.529,10.294-33.118,10.294-64.485A7.353,7.353,0,0,0,386.118,274h-7.353v7.353c0,29.132-4.912,44.868-9.676,60.1-4.1,13.132-7.971,25.544-7.971,44.309v4.412c0,17.118.1,33.279-7.971,41.382-4.765,4.779-12.574,7.1-23.853,7.1H267v7.353a7.353,7.353,0,0,0,7.353,7.353Z" transform="translate(-256.639 -274)" fill="#455a64"/><path d="M314.353,409.882a4.412,4.412,0,0,0,1.882-8.4c-.25-.118-25.412-12.323-25.412-30.088,0-3.985.971-8.574,8.574-8.574h67.9a4.412,4.412,0,1,0,0-8.823H299.4c-10.735,0-17.4,6.662-17.4,17.4,0,23.368,29.221,37.471,30.471,38.059a4.412,4.412,0,0,0,1.882.427Z" transform="translate(-256.933 -236.353)" fill="#263238"/><path d="M304.677,445.25s3.088-5.426,25.147-5.426c14.574,0,20.809,2.382,23.235,3.809a5.177,5.177,0,0,1,1.868,1.559l1.912-.6,1.471-.279,5.338-.426c-.235-3.015-3.4-12.882-33.824-12.882S296.25,440.868,296,443.882l8.824.706a1.676,1.676,0,0,1-.147.662Z" transform="translate(-269.462 -200.117)" fill="#263238"/><path d="M287.824,452.265c.853-3.471,11.485-12.441,50-12.441s49.206,8.971,50,12.441a1.189,1.189,0,0,1,0-.324l8.824-.706c-.265-3.382-4.412-20.235-58.824-20.235S279.279,447.853,279,451.235l8.824.706A1.189,1.189,0,0,1,287.824,452.265Z" transform="translate(-277.462 -200.117)" fill="#546e7a"/><rect width="18" height="55" transform="translate(51.302 178.823)" fill="#37474f"/><rect width="24" height="17" rx="3" transform="translate(48.302 224.823)" fill="#455a64"/><g transform="translate(0 230.883)"><path d="M320.412,460.412A4.412,4.412,0,0,0,324.824,456V435.412a4.412,4.412,0,1,0-8.824,0h0V456a4.412,4.412,0,0,0,4.412,4.412Z" transform="translate(-260.05 -431)" fill="#78909c"/><rect width="11" height="10" rx="2" transform="translate(55.302 24.94)" fill="#263238"/><rect width="12" height="10" rx="2" transform="translate(109.302 18.94)" fill="#263238"/><rect width="11" height="12" rx="2" transform="translate(84.302 10.94)" fill="#263238"/><rect width="13" height="12" rx="2" transform="translate(24.302 10.94)" fill="#263238"/><rect width="12" height="10" rx="2" transform="translate(0.302 18.94)" fill="#263238"/></g></g><g transform="translate(67.647 86.765)"><path d="M499.461,319.125A15.618,15.618,0,0,1,507.52,305.7l-1.471-2.588a18.574,18.574,0,0,0-9.529,16.015Z" transform="translate(-470.049 -279.419)" fill="#33691e"/><path d="M496.429,319.106l2.941-.088a15.794,15.794,0,0,1,6.735-13.456L504.4,303.15a18.809,18.809,0,0,0-7.971,15.956Z" transform="translate(-468.488 -279.4)" fill="#33691e"/><path d="M512.67,319.106A18.809,18.809,0,0,0,504.7,303.15l-1.706,2.412a15.8,15.8,0,0,1,6.735,13.544Z" transform="translate(-484.729 -279.4)" fill="#33691e"/><path d="M521.4,296c-6.338,0-13.573,4.985-15.441,6.338,4.044,1.574,6.765,6.485,13.926,7.426,4.779.6,5.882-1.132,5.882-1.132s3.779-.368,3.779-5.882C529.489,299.9,527.078,296,521.4,296Z" transform="translate(-505.96 -282.765)" fill="#558b2f"/><path d="M521.531,315.935c-6.838-.956-9.426-14.029-13.529-15.6,3.191-.471,8.206,1.471,19.75,6.294C530.339,313.729,526.545,316.714,521.531,315.935Z" transform="translate(-508.001 -280.758)" fill="#33691e"/><path d="M488.618,297.25c6.235-3.073,15.971.382,18.441,1.265-3.632,2.176-3.118,13.912-9.75,16.088-4.676,1.471-8.309-.25-8.691-6.632C483.412,305.029,484.192,299.411,488.618,297.25Z" transform="translate(-452.647 -282.764)" fill="#558b2f"/><path d="M493.691,313.8c6.632-2.176,6.118-13.912,9.75-16.088-3.25.265-7.927,3.073-18.441,9.456C485.382,313.548,488.9,315.328,493.691,313.8Z" transform="translate(-449.029 -281.96)" fill="#33691e"/><rect width="3" height="21" transform="translate(26.47 16.705)" fill="#33691e"/><path d="M504.412,287a17.074,17.074,0,0,1,4.412,10.853c0,6.794-4.412,6.794-4.412,6.794s-4.412,0-4.412-4.074C500,297.029,504.412,293.794,504.412,287Z" transform="translate(-476.471 -287)" fill="#558b2f"/><path d="M524.353,316l-4.412,22.059H496.412L492,316Z" transform="translate(-480.235 -273.353)" fill="#e64a19"/><path d="M492.471,321.353h32.353a1.471,1.471,0,0,0,1.471-1.471V314H491v5.882A1.588,1.588,0,0,0,492.471,321.353Z" transform="translate(-480.706 -274.294)" fill="#bf360c"/></g><g transform="translate(107.196 123.526)"><rect width="47" height="15" transform="translate(-0.079 -0.056)" fill="#ffb300"/><rect width="3" height="15" transform="translate(36.921 -0.056)" fill="#ff8f00"/><rect width="2" height="15" transform="translate(7.921 -0.056)" fill="#ff8f00"/><rect width="18" height="5" transform="translate(14.921 4.944)" fill="#ff8f00"/></g><g transform="translate(107.196 138.114)"><rect width="47" height="13" transform="translate(-0.079 0.356)" fill="#2e7d32"/><rect width="3" height="13" transform="translate(36.921 0.356)" fill="#7cb342"/><rect width="2" height="13" transform="translate(7.921 0.356)" fill="#7cb342"/><rect width="18" height="5" transform="translate(14.921 4.356)" fill="#7cb342"/></g><g transform="translate(108.318 110.06)"><rect width="41" height="13" transform="translate(-0.201 0.41)" fill="#1565c0"/><rect width="3" height="13" transform="translate(32.799 0.41)" fill="#64b5f6"/><rect width="3" height="13" transform="translate(4.799 0.41)" fill="#64b5f6"/><rect width="15" height="5" transform="translate(12.799 4.41)" fill="#64b5f6"/></g><g transform="translate(113.235 80.882)"><g transform="translate(16.044 5.926)"><path d="M472.395,288l-1.471,16.177h5.456a4.412,4.412,0,0,0,4.25-3.25l2.015-7.353a4.412,4.412,0,0,0-3.088-5.412A4.546,4.546,0,0,0,478.38,288Z" transform="translate(-469.321 -286.573)" fill="url(#c)"/><path d="M469.929,306.1h7.059a5.882,5.882,0,0,0,5.662-4.338l2.015-7.353a5.779,5.779,0,0,0-.559-4.412,5.882,5.882,0,0,0-3.559-2.765A6.106,6.106,0,0,0,479,287.03h-7.353Zm9.059-16.177a2.764,2.764,0,0,1,.779.1,2.941,2.941,0,0,1,2.059,3.618h0L479.811,301a2.941,2.941,0,0,1-2.823,2.162h-3.853l1.206-13.235Z" transform="translate(-469.929 -287.03)" fill="#1b3963"/></g><path d="M495.588,312.412H477.941A163.484,163.484,0,0,1,475,284.471,1.471,1.471,0,0,1,476.471,283h20.588a1.471,1.471,0,0,1,1.471,1.471A163.478,163.478,0,0,1,495.588,312.412Z" transform="translate(-475 -283)" fill="#254e8a"/></g><g transform="translate(54.455 151.58)"><path d="M508.015,417.25,508,497.765h13.221l.015-80.515L521.221,336H508Z" transform="translate(-487.455 -328.756)" fill="#4e342e"/><path d="M465.015,416.515,465,497.765h13.221l.015-81.25L478.221,336H465Z" transform="translate(-381.22 -328.756)" fill="#4e342e"/><rect width="236" height="16" transform="translate(-0.338 -0.109)" fill="#6d4c41"/><rect width="156" height="15" transform="translate(-0.338 154.891)" fill="#6d4c41"/></g></g></g></svg>