<svg xmlns="http://www.w3.org/2000/svg" xmlns:xlink="http://www.w3.org/1999/xlink" width="869.721" height="599.3" viewBox="0 0 869.721 599.3"><defs><style>.a,.f{fill:#fe3e57;}.a,.e,.i{opacity:0.1;}.b{fill:url(#a);}.c{fill:#fbbebe;}.d{fill:#464353;}.g{opacity:0.05;}.h{fill:#3f3d56;}.j{fill:#fffffe;font-size:20px;font-family:ø;}</style><linearGradient id="a" x1="0.5" y1="1" x2="0.5" gradientUnits="objectBoundingBox"><stop offset="0" stop-color="gray" stop-opacity="0.251"/><stop offset="0.54" stop-color="gray" stop-opacity="0.122"/><stop offset="1" stop-color="gray" stop-opacity="0.102"/></linearGradient></defs><g transform="translate(-998.645 -265.606)"><path class="a" d="M614.894,199.321c-55.756-1.938-108.86-19.935-159.576-39.629s-100.934-41.516-155.355-51.949c-35-6.711-75.028-7.659-103.234,11.1C169.591,136.94,160.821,168.083,156.1,197c-3.541,21.77-5.634,44.669,4.092,65.044,6.746,14.146,18.729,26.035,27.017,39.586,28.826,47.141,8.451,105.276-22.8,151.306-14.646,21.589-31.652,42.214-42.963,65.181s-16.541,49.321-6.651,72.771c9.813,23.261,33.185,40.7,58.5,52.974,51.423,24.932,112,32.074,171.112,36.114,130.793,8.951,262.293,5.074,393.431,1.2,48.537-1.439,97.281-2.895,145.025-10.4,26.517-4.17,53.9-10.786,73.142-26.707,24.432-20.271,30.489-54.6,14.12-80.016-27.465-42.636-103.38-53.232-122.6-98.987-10.571-25.182.284-53.241,15.636-76.6,32.944-50.114,88.158-94.068,91.07-151.349,2-39.336-24.544-78.733-65.586-97.35-43.024-19.513-102.674-17.058-134.395,15.24C721.548,188.234,664.12,201.027,614.894,199.321Z" transform="translate(889.072 178.997)"/><path class="b" d="M519.859,743.926c-.977-3.536-1.954-7.111-3.907-10.188a35.681,35.681,0,0,0-6.4-7c-7.082-6.427-15.775-12.952-25.162-11.331a33.593,33.593,0,0,0-8.342,3.047c-1.367.635-2.745,1.27-4.151,1.807a20.679,20.679,0,0,1-12.522,1.094c-2.149-.576-4.151-1.612-6.271-2.256a19.857,19.857,0,0,0-3.077-.664,52.389,52.389,0,0,0,5.949-3.136c10.53-6.447,18.93-18.1,17.758-30.563-.4-4.19-1.836-8.2-3.262-12.161L466.723,662.2c-1.621-4.493-3.3-9.074-6.261-12.806-3.292-4.161-7.98-6.984-12.825-9.084-10.4-4.523-21.772-6.115-33-7.658l-.781-.107V511.3a7.814,7.814,0,0,0-7.814-7.814H391.3q-.977-5.978-1.954-11.936c-1.856-11.34-3.78-22.886-9.006-33.093-3.419-6.681-8.859-13.06-16.195-14.368a15.71,15.71,0,0,1-4.21-.977c-2.149-1.055-3.321-3.4-4.972-5.128-4.259-4.464-11.184-4.532-16.889-6.838-5.04-2-9.162-5.773-13.753-8.674s-10.3-4.962-15.374-3.077a10.314,10.314,0,0,1-.107,1.1l-3.262-1.5c-3.516-1.631-7.1-3.3-9.924-5.978-3.624-3.419-5.558-7.951-7.062-12.767-.156-.5-.3-.977-.459-1.514a45.352,45.352,0,0,0,12.151-23.2l.791,2.569a17.061,17.061,0,0,0,.625,1.7,6.7,6.7,0,0,0,1.954,2.764,3.467,3.467,0,0,0,.82.479,3.414,3.414,0,0,0,.84.215,3.123,3.123,0,0,0,1.211-.088,4.62,4.62,0,0,0,2.93-2.715,5.863,5.863,0,0,0,.342-1.192,6.179,6.179,0,0,0,.068-.742v-1.016a1.907,1.907,0,0,0-.049-.488v-.254a2.843,2.843,0,0,0-.1-.576c-.039-.186,0-.107,0-.156-.049-.244-.107-.5-.156-.742V375.1c0-.059-.088-.4-.137-.605s-.068-.264-.1-.4v-.059h0c-.1-.391-.186-.772-.274-1.162a33.582,33.582,0,0,1-.537-10.315,110.451,110.451,0,0,1,2.794-14.994l.205-.889c.078-.342.156-.684.225-1.035.156-.7.313-1.407.459-2.12h0l.352-1.8.264-1.6v-.205a46.309,46.309,0,0,0,.342-10.969h0c-.449-5.109-2.032-9.944-5.5-13.792-2.452-2.725-5.685-4.737-7.961-7.6-2.129-2.676-3.331-5.978-5.538-8.605-6.1-7.277-21.743-12.884-31.345-13.86-11-1.114-28.766,1.7-37.635,8.2-3.282,2.393-5.529,5.861-7.814,9.143-4.2,6.1-8.967,12.2-15.7,15.628-2.54,1.289-5.45,2.266-7.14,4.513a12.2,12.2,0,0,0-1.9,5.06,100.323,100.323,0,0,0-2.012,19.321h0V349.4a17.807,17.807,0,0,0,1.524,7.062c.156.332.332.654.518.977l.117.205a38.85,38.85,0,0,1,3.126,5.323,7.049,7.049,0,0,1,.479,1.621,11.953,11.953,0,0,1-.273,4.278h0a3.762,3.762,0,0,1-.127.645l-.088.42a.824.824,0,0,1-.078.43c-.078.42-.147.84-.205,1.25h0a8.79,8.79,0,0,0,.215,3.38,4.444,4.444,0,0,0,2.168,2.93,6.35,6.35,0,0,0,1.758.547c.615.107,1.241.176,1.846.313a9.114,9.114,0,0,1,2.237.83,9.007,9.007,0,0,1,1.885,1.211,10.724,10.724,0,0,1,.811.821,13.678,13.678,0,0,1,1.387,1.895q.313.518.586,1.055a24.1,24.1,0,0,1,1.67,4.415c.254.908.469,1.827.654,2.745.088.41.166.82.234,1.221s.137.811.2,1.211h0a2.841,2.841,0,0,0,.781-.156c1.436-.518,2.237-2.188,2.686-3.809.078-.273.147-.537.205-.8.225-.977.459-2.051.684-3.077a45.294,45.294,0,0,0,17.826,19.633c.273.811.537,1.612.772,2.432,1.28,4.425,1.895,9.055-.322,12.923-1.582,2.745-4.239,4.435-7.209,5.607a4.766,4.766,0,0,0-1.612-1.367c-2.569-1.289-5.655.274-7.814,2.2-3.907,3.536-7.091,8.605-12.229,9.768-1.856.43-3.907.342-5.45,1.475a12.7,12.7,0,0,0-2.53,3.321,11.644,11.644,0,0,1-9.992,4.982c-1.787-.088-3.907-.5-5.128.811-.908.977-.977,2.52-1.954,3.448-1.309,1.289-3.458.664-5.284.586-3.477-.146-6.71,2.1-8.693,4.982s-2.93,6.33-3.907,9.768v.059a7,7,0,0,0-.713.6,10.305,10.305,0,0,0-2.159,3.5,166.9,166.9,0,0,0-13.773,56.829,5.861,5.861,0,0,1-.625,2.755,13.542,13.542,0,0,1-1.436,1.563,5.48,5.48,0,0,0,.908,7.814,6.151,6.151,0,0,1,1.045-1.387c-.107.449-.205.889-.273,1.289a34.664,34.664,0,0,0-.107,8.6q1.387,20.356,2.8,40.683c.264,3.839.527,7.668.879,11.5q1.026,11.116,2.93,22.143a9.551,9.551,0,0,0,.215.977c-7.961,2.53-15.042,7.1-18.022,14.73-1.035,2.637-1.5,5.509-2.774,8.039-1.4,2.774-3.692,4.991-5.216,7.707-2.628,4.669-2.745,10.393-1.788,15.628,1.846,10.207,7.365,19.33,14.652,26.754h-.977a15.275,15.275,0,0,0-6.671,2.393c-15.414,9.006-24.224,28.327-21.011,45.967.635,3.448,1.739,6.945,4.044,9.572a15.151,15.151,0,0,0,7.111,4.357,24.7,24.7,0,0,0,5.245.977c12.014.977,23.648-4.591,35.691-5.06a95.72,95.72,0,0,1,11.946.557q8.7.723,17.435.918c9.465.225,14.788-2.3,20.825-9.367a25.488,25.488,0,0,0,3.682-5.8c5.138-.293,10.813-.742,14.915-1.074l.059.566c.225,1.954.567,4.2,2.129,5.431a7.433,7.433,0,0,0,2.93,1.2c9.865,2.422,19.848,4.884,30.007,4.884a126.731,126.731,0,0,0,14.251-1.094l17.846-2.061a88.877,88.877,0,0,1,15.335,3.341c5.157,1.748,9.973,4.347,15.013,6.408,11.721,4.747,24.322,6.447,36.8,8.107,2.129.283,4.571.479,6.144-.977,2.032-1.954,1.358-5.216.781-7.951-.234-1.123-.41-2.247-.547-3.38a171.183,171.183,0,0,1,24.654,8.557l1.4.615c.41,2.129,2.374,3.829,4.259,6.124a15.626,15.626,0,0,0,2.159,2.676,7.2,7.2,0,0,0,3.1,1.114,144.391,144.391,0,0,0,39.979,1.807,40.9,40.9,0,0,1,8.244-.283,35.728,35.728,0,0,1,5.958,1.338l11.3,3.243c8.332,2.383,16.859,4.8,25.5,4.259a32.625,32.625,0,0,0,5.206-.752c6.837-1.582,13.206-5.4,16.488-11.546C524.5,763.383,522.36,753.107,519.859,743.926Z" transform="translate(1036.22 80.134)"/><path class="c" d="M205.843,752.317c-2.061-4.688-4.015-10.08-1.954-14.769a12.552,12.552,0,0,1,6.5-6.1,31.256,31.256,0,0,1,8.791-2.169,122.7,122.7,0,0,1,28.581-.391c.694,5.49-.772,11.057-2.032,16.361-1.143,4.884-1.8,5.607-6.837,5.861C235.625,751.282,206.614,754.046,205.843,752.317Z" transform="translate(1034.044 69.837)"/><ellipse class="d" cx="139.679" cy="39.071" rx="139.679" ry="39.071" transform="translate(1187.189 712.384)"/><ellipse class="e" cx="139.679" cy="39.071" rx="139.679" ry="39.071" transform="translate(1187.189 712.384)"/><path class="c" d="M318.344,467.458a43.457,43.457,0,0,1-22.407,20.356,56.243,56.243,0,0,1-17.787,3.38c-6.632.3-13.4-.127-19.633-2.393-8.361-3.028-15.306-9.221-20.512-16.439S229.213,456.9,226.1,448.587c-1.641-4.327-3.2-8.937-2.432-13.509,5.03-1.143,10.539-2.823,13.138-7.287,2.217-3.829,1.6-8.42.322-12.8-.361-1.241-.781-2.471-1.2-3.653-.977-2.833-4.347-8.215-1.954-10.637,1.494-1.534,7.756-2.315,9.914-3.311,6.652-3.067,12.786-7.5,20.092-8.957,6.32-1.26,12.845-.078,19.155,1.231a6.3,6.3,0,0,1,2.364.85,5.684,5.684,0,0,1,1.758,2.637c1.8,4.376,2.852,9.211,4.3,13.773,1.5,4.776,3.438,9.26,7.062,12.649,2.823,2.647,6.418,4.308,9.934,5.919l8.654,3.966a11.378,11.378,0,0,1,4.093,2.647,10.363,10.363,0,0,1,1.954,5.314A49.64,49.64,0,0,1,318.344,467.458Z" transform="translate(1033.569 77.741)"/><path class="e" d="M291.742,406.928A44.932,44.932,0,0,1,237.365,415c-.361-1.241-.781-2.471-1.2-3.653-.977-2.833-4.347-8.215-1.954-10.637,1.494-1.534,7.756-2.315,9.914-3.311,6.652-3.067,12.786-7.5,20.092-8.957,6.32-1.26,12.845-.078,19.155,1.231a6.3,6.3,0,0,1,2.364.85,5.685,5.685,0,0,1,1.758,2.637C289.242,397.531,290.3,402.366,291.742,406.928Z" transform="translate(1033.339 77.741)"/><ellipse class="c" cx="44.932" cy="44.932" rx="44.932" ry="44.932" transform="translate(1247.75 406.653)"/><path class="f" d="M394.617,520.553l-3.692-22.368c-1.866-11.223-3.79-22.661-9.006-32.771-3.429-6.622-8.869-12.932-16.2-14.241a15.678,15.678,0,0,1-4.22-.977c-2.149-1.035-3.321-3.36-4.972-5.079-4.259-4.415-11.194-4.483-16.9-6.73-5.04-1.953-9.162-5.714-13.753-8.586s-10.3-4.884-15.384-3.047c-.82,8.742-1.69,17.68-5.4,25.64A38.368,38.368,0,0,1,247.2,466.811c-8.7-6.554-14.28-16.664-16.879-27.242-.635-2.579-1.358-5.538-3.731-6.72-2.569-1.289-5.656.274-7.814,2.169-3.907,3.507-7.1,8.527-12.239,9.709-1.856.43-3.907.342-5.45,1.465a12.408,12.408,0,0,0-2.54,3.292,11.721,11.721,0,0,1-9.992,4.943c-1.787-.088-3.907-.5-5.128.8-.908.977-.977,2.5-1.954,3.409-1.319,1.28-3.458.654-5.294.586-3.477-.146-6.71,2.081-8.7,4.884s-2.93,6.271-3.907,9.631c10.676,23.775,20.444,47.579,31.12,71.354a6.086,6.086,0,0,1,.772,2.93,7.141,7.141,0,0,1-1.328,2.93c-5.236,8.41-5.069,18.989-4.493,28.874s1.28,20.327-3.135,29.186c-1.2,2.432-2.764,4.659-3.907,7.092-2.676,5.509-3.643,23.13-2.081,29.049h220.83c-4.21-11.575-2.608-34.8-1.729-47.091.615-8.6-.977-17.182-1.661-25.777C396.463,554.73,397.518,538.077,394.617,520.553Z" transform="translate(1034.96 76.855)"/><path class="c" d="M146.242,548.684a34.575,34.575,0,0,0-.117,8.527l2.8,40.312c.264,3.8.527,7.59.879,11.379.674,7.355,1.68,14.652,2.93,21.939a3.907,3.907,0,0,0,4,3.8c12.356,2.618,25.123,2.51,37.733,1.8,19.243-1.075,38.456-3.526,57.728-3.106,4.962.107,10.745,0,13.753-3.907s1.26-10.227-2.667-13.382-9.26-3.907-14.3-3.907c-6.671-.068-13.343.879-19.995.488-6.1-.361-12.073-1.836-17.992-3.311L194.4,605.181c.635-5.03,2.549-9.768,4.366-14.544,3.262-8.469,6.31-17.221,6.369-26.295s-3.36-18.617-10.793-23.814c-6.115-4.268-13.987-5.06-21.44-4.884-5.421.156-14.788-1.143-19.741.977C149.241,538.34,146.975,544.845,146.242,548.684Z" transform="translate(1035.37 74.316)"/><path class="d" d="M407.494,643.341c3.253-1.241,6.837-.791,10.325-.322,11.223,1.534,22.612,3.106,33.015,7.59,4.884,2.09,9.533,4.884,12.835,9,2.93,3.7,4.64,8.234,6.261,12.7l3.751,10.276c1.426,3.907,2.872,7.892,3.272,12.044,1.172,12.3-7.238,23.892-17.817,30.28s-23.032,8.664-35.164,11.047-24.312,5.021-36.395,7.814a146.527,146.527,0,0,1-17.123,3.37c-12.933,1.465-26.451-.693-38.739,3.585-4.884,1.709-9.68,4.249-14.749,5.431a91.78,91.78,0,0,1-10.2,1.553l-23.257,2.657a126.874,126.874,0,0,1-14.261,1.094c-10.159,0-20.151-2.4-30.016-4.806a7.589,7.589,0,0,1-2.93-1.182c-1.563-1.231-1.9-3.409-2.129-5.382q-1.494-13.1-2.618-26.226c-.234-2.843-.41-5.919,1.143-8.313,1.954-2.93,5.763-3.848,9.24-4.415a241.153,241.153,0,0,1,44.619-3.1c5.675-5.675,15.033-5.7,22.466-8.791a66.794,66.794,0,0,0,7.922-4.308,103.539,103.539,0,0,1,43.5-13.743,40.477,40.477,0,0,0,8.9-1.27c5.753-1.787,11-6.652,16.908-5.46.733-2.022,1.241-4.728,2.93-6.115.84-.713,1.875-1.192,2.647-1.954,1.631-1.651,1.778-4.249,1.534-6.554s-.791-4.669-.2-6.916a9.566,9.566,0,0,1,1.084-2.413C397.179,645.451,401.6,642.853,407.494,643.341Z" transform="translate(1033.385 71.827)"/><path class="g" d="M407.494,643.341c3.253-1.241,6.837-.791,10.325-.322,11.223,1.534,22.612,3.106,33.015,7.59,4.884,2.09,9.533,4.884,12.835,9,2.93,3.7,4.64,8.234,6.261,12.7l3.751,10.276c1.426,3.907,2.872,7.892,3.272,12.044,1.172,12.3-7.238,23.892-17.817,30.28s-23.032,8.664-35.164,11.047-24.312,5.021-36.395,7.814a146.527,146.527,0,0,1-17.123,3.37c-12.933,1.465-26.451-.693-38.739,3.585-4.884,1.709-9.68,4.249-14.749,5.431a91.78,91.78,0,0,1-10.2,1.553l-23.257,2.657a126.874,126.874,0,0,1-14.261,1.094c-10.159,0-20.151-2.4-30.016-4.806a7.589,7.589,0,0,1-2.93-1.182c-1.563-1.231-1.9-3.409-2.129-5.382q-1.494-13.1-2.618-26.226c-.234-2.843-.41-5.919,1.143-8.313,1.954-2.93,5.763-3.848,9.24-4.415a241.153,241.153,0,0,1,44.619-3.1c5.675-5.675,15.033-5.7,22.466-8.791a66.794,66.794,0,0,0,7.922-4.308,103.539,103.539,0,0,1,43.5-13.743,40.477,40.477,0,0,0,8.9-1.27c5.753-1.787,11-6.652,16.908-5.46.733-2.022,1.241-4.728,2.93-6.115.84-.713,1.875-1.192,2.647-1.954,1.631-1.651,1.778-4.249,1.534-6.554s-.791-4.669-.2-6.916a9.566,9.566,0,0,1,1.084-2.413C397.179,645.451,401.6,642.853,407.494,643.341Z" transform="translate(1033.385 71.827)"/><path class="h" d="M212.661,757.885c-6.046,7-11.37,9.5-20.835,9.279q-8.732-.205-17.445-.908a97.876,97.876,0,0,0-11.956-.557c-12.053.469-23.687,5.988-35.711,5.021a25.309,25.309,0,0,1-5.245-.977,15.264,15.264,0,0,1-7.121-4.317c-2.305-2.608-3.409-6.066-4.044-9.484-3.214-17.523,5.6-36.609,21.02-45.528a15.416,15.416,0,0,1,6.681-2.373,15.833,15.833,0,0,1,6.759,1.485l.147.059a51.114,51.114,0,0,1,16.742,11.174,9.434,9.434,0,0,0,2.559,2.061,8.793,8.793,0,0,0,3.018.567l12.835.811a30.423,30.423,0,0,1,6.447.889,51.255,51.255,0,0,1,6.779,2.93c6.906,3.087,14.564,3.907,22.026,5.1a3.291,3.291,0,0,1,1.954.781,3.058,3.058,0,0,1,.606,1.27,24.918,24.918,0,0,1-5.216,22.72Z" transform="translate(1036.212 70.306)"/><path class="e" d="M144.912,709.593a77.059,77.059,0,0,0-12.845,16.058,80.369,80.369,0,0,0-10.491,31.784,59,59,0,0,0-.107,12.317,15.265,15.265,0,0,1-7.121-4.317c-2.305-2.608-3.409-6.066-4.044-9.484-3.214-17.523,5.6-36.61,21.02-45.528a15.414,15.414,0,0,1,6.681-2.374,15.837,15.837,0,0,1,6.759,1.485Z" transform="translate(1036.212 70.306)"/><path class="c" d="M399.527,734.466c7.179-.2,15.238-.557,20.512,4.278,5.03,4.571,5.695,12.112,6.027,18.9l.381,7.882c.117,2.4.215,4.884-.752,7.111-1.719,3.907-6.437,5.792-10.745,5.568s-8.263-2.11-12.2-3.809a171.615,171.615,0,0,0-33.21-10.461q.557-8.175,1.856-16.273c.6-3.741.694-10,3.194-13.108,2.647-3.282,6.1-1.5,9.69-.9a77.782,77.782,0,0,0,15.247.81Z" transform="translate(1030.177 69.735)"/><path class="d" d="M204.1,652.907c0,.977-1.534,0-1.67-1.045-1.074-7.9-7.345-14.417-14.652-17.582s-15.628-3.331-23.54-2.579c-11.966,1.133-25.4,5.714-29.772,16.9-1.035,2.618-1.5,5.45-2.774,7.961-1.407,2.755-3.7,4.952-5.226,7.629-2.628,4.63-2.735,10.305-1.788,15.541,2.549,13.968,12.1,25.914,23.677,34.187s25.1,13.216,38.592,17.67a669.279,669.279,0,0,0,109.4,26.129c6.017.908,12.092,1.748,17.855,3.682,5.157,1.729,9.983,4.317,15.023,6.349,11.721,4.708,24.332,6.388,36.825,8.039,2.129.274,4.571.469,6.144-.977,2.032-1.885,1.358-5.167.781-7.873a42.344,42.344,0,0,1,4.991-30.046c2.09-3.516,4.806-7.121,4.415-11.194-.469-4.747-5.2-8.107-9.9-8.869s-9.494.361-14.222.977a7.618,7.618,0,0,1-4.835-.479,9.661,9.661,0,0,1-1.895-1.68,21.421,21.421,0,0,0-24.947-3.487c-1.748.977-4.4-1.2-6.212-2.022l-20.542-9.3c-23.6-10.676-47.315-21.4-72.282-28.161a15.179,15.179,0,0,1-5.568-2.315c-1.241-.977-2.129-2.305-3.272-3.389-2.491-2.354-5.958-3.292-8.947-4.962S203.415,656.257,204.1,652.907Z" transform="translate(1035.876 72.088)"/><path class="h" d="M527.3,782.778c-3.282,6.085-9.651,9.875-16.488,11.438a32.734,32.734,0,0,1-5.216.742c-8.645.537-17.182-1.856-25.513-4.22l-11.311-3.184a35.678,35.678,0,0,0-5.958-1.328,40.9,40.9,0,0,0-8.244.283,146.114,146.114,0,0,1-40.048-1.8,7.063,7.063,0,0,1-3.1-1.1,15.38,15.38,0,0,1-2.159-2.647c-3.077-3.7-6.388-5.86-2.745-10.745,2.1-2.833,6-4.249,7.629-7.5s.586-7.873-.381-11.233c-1.319-4.64-5.656-6.642-7.209-10.9-1.162-3.214.791-6.945,3.731-8.694s6.574-1.885,9.963-1.436,6.711,1.407,10.119,1.67c10.022.8,20.268-4.366,29.889-1.455,2.12.645,4.122,1.67,6.271,2.237a20.856,20.856,0,0,0,12.532-1.084c1.406-.527,2.784-1.162,4.151-1.787a33.415,33.415,0,0,1,8.352-3.018c9.387-1.612,18.09,4.884,25.171,11.223a35.589,35.589,0,0,1,6.4,6.935,34.812,34.812,0,0,1,3.907,10.09C529.635,764.3,531.774,774.476,527.3,782.778Z" transform="translate(1029.355 69.871)"/><path class="f" d="M162.542,475.462a10.109,10.109,0,0,0-2.168,3.467A163.963,163.963,0,0,0,146.6,535.211a5.626,5.626,0,0,1-.635,2.725,11.921,11.921,0,0,1-1.436,1.553,5.392,5.392,0,0,0,.918,7.814c1.612-3.038,5.47-4.024,8.9-4.288,16.42-1.3,32.458,6.339,48.927,5.763-1.162-4.015-2.833-7.873-3.78-11.936-4.19-18.041,6.261-37.684-.147-55.061-1.28-3.477-3.419-6.9-6.789-8.42a18.078,18.078,0,0,0-4.347-1.153c-4.161-.752-12.444-3.966-16.468-2.676-1.485.479-2.071,1.875-3.3,2.715C166.576,473.45,164.095,473.889,162.542,475.462Z" transform="translate(1035.431 75.852)"/><rect class="h" width="217.821" height="138.702" rx="7.97" transform="translate(1232.609 587)"/><path class="h" d="M227.358,298.653c-3.282,2.374-5.529,5.783-7.814,9.055-4.21,6.046-8.977,12.083-15.707,15.453-2.549,1.28-5.46,2.247-7.15,4.474a12.054,12.054,0,0,0-1.9,5.011,99.29,99.29,0,0,0-2.012,19.145c0,3.2.137,6.505,1.553,9.416,1.338,2.735,3.751,5.05,4.249,8.029.381,2.325-.479,4.64-.781,6.974s.225,5.1,2.383,6.212a14.443,14.443,0,0,0,3.614.85c6.5,1.446,8.674,9.064,9.66,15.365,2.207-.127,3.2-2.657,3.663-4.718l6.769-30.094c.733-3.263,1.954-7.043,5.206-8.185,2.178-.752,4.562-.049,6.837.146,8.937.733,16.5-6.173,25.24-8.078a32.226,32.226,0,0,1,8.508-.567c6.9.342,14.915,3.175,16.381,9.612.244,1.045.391,2.3,1.367,2.813s2,.078,3.028,0c4.376-.44,6.955,4.483,8.215,8.508l4.591,14.652c.684,2.217,1.836,4.825,4.239,5.109,2.217.274,4.1-1.826,4.435-3.907s-.391-4.239-.869-6.33c-2.159-9.621,1.143-19.467,3.155-29.108s2.374-20.717-4.376-28.141c-2.452-2.686-5.675-4.689-7.961-7.521-2.129-2.657-3.331-5.919-5.538-8.527-6.1-7.2-21.763-12.757-31.364-13.675C254,289.432,236.227,292.216,227.358,298.653Z" transform="translate(1034.282 80.006)"/><g class="i" transform="translate(1227.061 413.969)"><path d="M307.65,382.181c-2.4-.293-3.555-2.93-4.239-5.108q-2.3-7.336-4.591-14.652c-1.26-4.034-3.839-8.957-8.215-8.508-1.026.107-2.129.508-3.028,0s-1.123-1.768-1.368-2.813c-1.465-6.447-9.484-9.27-16.38-9.612a32.655,32.655,0,0,0-8.508.557c-8.742,1.953-16.3,8.791-25.24,8.078-2.305-.185-4.688-.889-6.837-.137-3.292,1.133-4.474,4.884-5.206,8.185l-6.769,30.085c-.459,2.071-1.455,4.6-3.663,4.718-.977-6.29-3.165-13.909-9.66-15.355a15.353,15.353,0,0,1-3.614-.85,4.239,4.239,0,0,1-1.885-2.1c-.176.908-.381,1.817-.5,2.725-.293,2.325.225,5.1,2.383,6.212a14.446,14.446,0,0,0,3.614.85c6.5,1.446,8.674,9.064,9.66,15.365,2.208-.127,3.2-2.657,3.663-4.718l6.769-30.094c.733-3.262,1.954-7.043,5.206-8.185,2.178-.752,4.562-.049,6.837.147,8.938.733,16.5-6.173,25.24-8.078a32.232,32.232,0,0,1,8.508-.566c6.9.342,14.915,3.175,16.381,9.611.244,1.045.391,2.3,1.367,2.813s2,.078,3.028,0c4.376-.44,6.955,4.483,8.215,8.508q2.286,7.336,4.591,14.652c.684,2.217,1.836,4.825,4.239,5.109,2.217.273,4.1-1.827,4.435-3.907a13.265,13.265,0,0,0-.586-5.187A4.034,4.034,0,0,1,307.65,382.181Z" transform="translate(-192.898 -335.149)"/><path d="M198.582,363.78c-.5-2.979-2.93-5.294-4.249-8.029a16.068,16.068,0,0,1-1.446-5.861c0,1.094-.1,2.188-.107,3.292,0,3.2.137,6.505,1.553,9.416,1.084,2.217,2.872,4.171,3.77,6.427A14.711,14.711,0,0,0,198.582,363.78Z" transform="translate(-192.78 -335.346)"/><path d="M317.048,342.648c-1.778,8.518-4.552,17.191-3.692,25.728.557-6.3,2.393-12.64,3.692-18.891A49.813,49.813,0,0,0,318.181,335a59.725,59.725,0,0,1-1.133,7.648Z" transform="translate(-195.576 -335)"/></g><g class="i" transform="translate(1520.735 303.235)"><path class="f" d="M169.4,349.1s-28.273-65.419-69.007-35.416c0,0-8.606,2.5-8.542,11.425,0,0,3.353-1.559,5.477,5.413a32.139,32.139,0,0,0,3.2,7.058,16.016,16.016,0,0,0,7.741,6.673h0s16.411,14.115,49.115,6.289c0,0,8.969,1.911,10.5.886l-9.994-8.4s-5.883,7.581-13.763,7.944c0,0,13.7-7.367,12.332-9.257-.278-.384-5.5-4.207-5.5-4.207s-10.271,13.112-22.422,13.315c0,0,17.5-6.6,20.5-14.788l-8.221-5.339s-10.368,14.425-24.248,15.172c0,0,18.055-7.527,22.177-16.2l-8.787-4.132s-10.207,13.88-21.75,14.4c0,0,19.988-10.805,19.678-15.215,0,0-8.3-3.31-10.933-3.118,0,0-7.549,9.77-14.286,9.492,0,0,12.588-8.638,11.905-10.143,0,0-11.958-1.431-18.4,1.068,0,0,9.247-4.356,18.525-2.926,0,0-3.908-5.264-9.343-6.727,0,0,6.791-2.274,12.236,7.1,0,0,9.268,1.495,10.357,2.605,0,0-4.068-10.026-9.609-14.542,0,0,8.542,2.135,11.958,15.557l8.926,3.961s-4.677-13.539-9.311-17.927c0,0,8.4,3.5,11.478,19.112l8.115,5.114s-3.139-11.959-7.229-17.97c0,0,7.09,4.933,9.492,19.529l5.018,4.057s-2.445-8.691-3.374-11.126-.352-2.883-.352-2.883a30.59,30.59,0,0,1,5.862,15.674S168.79,349.64,169.4,349.1Z" transform="translate(-91.85 -305.806)"/></g><g class="i" transform="translate(1310.845 265.606)"><path class="f" d="M140.674,400.037S88.908,378.27,82.123,417.546c0,0-3.538,6.12,1.385,11.174,0,0,1.059-2.714,6.058.09a25.735,25.735,0,0,0,5.649,2.3,12.712,12.712,0,0,0,8.045-.429h0s17.025-.921,31.342-23.193c0,0,6.141-3.794,6.446-5.22l-10.26.692s.789,7.512-3.462,12.019c0,0,3.766-11.659,1.959-11.984-.367-.069-5.421.6-5.421.6s1.309,13.064-5.539,19.822c0,0,6.356-13.286,3.593-19.586l-7.574,1.461s2.077,13.743-5.414,21.732c0,0,6.162-14.124,3.78-21.3l-7.249,2.437s1.745,13.438-4.521,20.078c0,0,5.469-17.038,2.894-19.385,0,0-6.522,2.645-7.913,4.154,0,0,1.032,9.693-2.949,13.189,0,0,2.444-11.77,1.232-12.254,0,0-7.574,5.7-9.887,10.627,0,0,2.88-7.519,8.938-11.77,0,0-5.089-.858-9,1.267,0,0,2.617-4.992,10.835-2.624,0,0,6.086-4.216,7.3-4.154,0,0-7.775-3.462-13.39-3.032,0,0,6.023-3.462,15.287,2.319l7.235-2.61s-10.039-5.144-15.065-5.123c0,0,6.688-2.589,16.941,4.611l7.408-1.509s-8.308-5.089-13.909-6.273c0,0,6.716-1.066,16.048,5.919l5.061-.422s-6.127-3.614-7.983-4.493-1.772-1.447-1.772-1.447a24.156,24.156,0,0,1,11.867,5.663S140.633,400.681,140.674,400.037Z" transform="translate(-80.893 -394.021)"/></g><text class="j" transform="translate(1321 647)"><tspan x="0" y="20">acer</tspan></text></g></svg>